<svg xmlns="http://www.w3.org/2000/svg" width="24" height="24" viewBox="0 0 24 24" fill="none" stroke="currentColor" stroke-width="2" stroke-linecap="round" stroke-linejoin="round" class="lucide lucide-custom-3">
  <path d="M2.45142 9.84364C2.04883 11.2152 1.91464 14.5689 4.59854 17.0111C4.93112 17.3138 5.2426 17.5955 5.53795 17.8576C6.50218 18.7132 7.29446 19.3587 8.08766 19.8346C9.50235 20.6835 10.92 20.9931 13.3212 20.9931C15.4236 21.0816 19.8968 20.356 20.9704 16.7457M12.7845 4.40165C12.3497 4.08309 11.8994 3.82953 11.4425 3.63062C10.0329 3.01693 8.55992 2.9236 7.28249 3.04749C5.52363 3.21807 4.13543 3.80046 3.79339 4.00345C3.12242 4.40165 1.10945 7.05627 2.45142 9.84364M8.33764 14.5287C7.5977 13.9695 6.75094 13.3081 5.90783 12.639C5.46506 12.2876 5.02329 11.934 4.59854 11.5919C3.78212 10.9344 3.02854 10.3193 2.45142 9.84364M20.9704 16.7457C21.3729 16.3917 22.3123 15.2856 22.8491 13.6929C23.5201 11.7019 21.7755 10.1091 21.1046 9.57818C20.9267 9.43744 20.5131 9.19412 19.9338 8.86305M20.9704 16.7457C20.7174 16.9244 19.7523 17.2821 17.7497 17.5249M19.9338 8.86305C19.6203 8.6839 19.2583 8.47906 18.8589 8.25087C17.7914 7.64105 16.4565 6.86452 15.0658 5.96611C14.3105 5.47818 13.5388 4.95429 12.7845 4.40165M12.7845 4.40165C11.523 4.93501 9.17663 5.83276 8.5 7.5C7.28249 10.5 8.40668 13.0721 8.33764 14.5287M18.8589 8.25087C18.5462 8.07162 14.9477 7.88246 13.7239 8.86305C12.5 9.84364 12.2209 10.7728 12.1135 13.4274C12.0062 16.082 12.0688 16.9756 12.1135 17.0905M7.28249 3.04749C6.38784 3.45463 4.59854 5.06531 4.59854 8.25087C4.59854 11.4364 4.59854 11.8055 4.59854 11.5919M17.7497 17.5249C17.2731 17.5827 16.7378 17.634 16.1394 17.6748C13.9882 17.8215 12.9031 17.5222 12.1135 17.0905C11.4746 16.7413 11.0292 16.3055 10.369 15.9493C10.0518 15.7782 9.03335 15.045 8.33764 14.5287M19.9338 8.86305C19.2058 9.23416 17.7497 10.5338 17.7497 12.7637C17.7497 14.9936 17.7497 16.867 17.7497 17.5249" />
</svg>
