<svg  viewBox="0 0 1138 1080" fill="none" xmlns="http://www.w3.org/2000/svg">
<path d="M610.783 330.248C625.463 330.548 620.053 330.478 634.703 330.918C637.513 330.998 651.623 330.828 654.433 330.878C655.173 330.888 662.363 331.098 664.793 329.888C665.843 329.358 666.293 326.108 666.313 324.928C666.413 319.088 666.493 316.928 666.523 311.088C666.663 284.928 669.923 258.888 668.303 232.778C668.203 231.158 668.093 229.518 667.553 227.998C667.013 226.478 665.943 225.058 664.433 224.458C663.473 224.078 662.413 224.058 661.383 224.038C618.553 223.338 575.713 223.138 532.903 224.508C531.763 224.188 530.113 225.108 529.543 226.148C528.973 227.188 528.913 228.418 528.863 229.598C528.383 240.298 527.903 250.998 527.433 261.698C527.233 266.258 527.023 270.818 527.013 275.378C526.983 286.068 528.013 296.778 527.063 307.428C526.533 313.388 528.083 319.468 527.713 325.438C527.663 326.308 527.603 327.258 528.103 327.978C528.803 328.998 530.013 329.948 531.253 329.968C558.013 330.428 584.013 329.658 610.773 330.218L610.783 330.248Z" stroke="black" stroke-miterlimit="10"/>
<path d="M620.133 358.208C634.893 358.458 649.663 358.068 664.383 357.018C665.023 356.968 665.763 356.878 666.123 356.338C666.343 355.998 666.363 355.578 666.363 355.168C666.443 349.348 666.163 343.518 665.543 337.728C665.453 336.888 665.313 335.968 664.703 335.388C664.003 334.728 662.933 334.708 661.973 334.738C660.143 334.788 658.823 334.828 656.993 334.818C637.293 334.738 617.603 334.648 597.903 334.568C575.953 334.478 553.993 334.378 532.053 333.808C531.033 333.778 530.513 333.558 529.493 333.558C529.043 333.558 528.533 333.578 528.213 333.898C527.823 334.288 527.883 334.918 527.973 335.468C528.773 340.688 528.943 345.998 528.483 351.248C528.243 353.878 527.853 356.558 528.363 359.158C528.393 359.318 528.473 359.508 528.633 359.518C559.033 359.848 589.763 359.008 620.153 358.208H620.133Z" stroke="black" stroke-miterlimit="10"/>
<path d="M582.313 488.668C566.583 487.878 550.813 487.868 535.073 488.628C533.713 488.698 532.313 488.758 531.043 488.298C529.773 487.838 528.633 486.698 528.613 485.338C528.203 451.038 527.793 416.738 527.393 382.448C527.333 377.238 527.273 372.018 527.633 366.818C527.733 365.328 528.843 363.568 530.333 363.538C557.783 363.058 585.233 362.588 612.683 362.108C615.933 362.048 619.193 361.998 622.443 362.048C629.273 362.158 636.093 362.728 642.923 362.528C649.203 362.338 655.463 361.488 661.743 361.698C662.993 361.738 664.073 362.678 664.643 363.798C665.213 364.918 665.353 366.188 665.473 367.438C667.683 390.288 664.483 413.268 663.343 436.198C662.563 452.048 664.213 468.168 664.203 484.038C664.203 485.518 664.643 487.308 663.323 487.978C663.013 488.138 662.743 488.498 660.783 488.508C658.823 488.518 609.093 490.028 582.313 488.688V488.668Z" stroke="black" stroke-miterlimit="10"/>
<path d="M736.143 378.998C736.683 373.968 736.113 368.808 734.483 364.018C734.153 363.048 733.733 362.028 732.903 361.428C732.003 360.778 730.813 360.738 729.703 360.728C711.243 360.548 692.773 360.828 674.323 361.548C672.277 361.835 670.957 362.408 670.363 363.268C669.483 364.548 669.423 366.208 669.393 367.768C668.833 396.188 668.273 424.608 667.713 453.028C667.503 463.518 667.303 474.048 668.453 484.488C668.693 486.628 670.633 488.258 672.703 488.838C674.773 489.418 676.973 489.188 679.123 489.008C697.973 487.488 717.103 491.128 735.783 488.168C736.173 488.108 736.583 488.028 736.863 487.748C737.153 487.458 737.233 487.018 737.293 486.618C739.883 468.228 736.123 449.608 735.583 431.038C735.423 425.338 735.563 419.628 735.703 413.928C735.993 402.408 734.903 390.448 736.133 378.998H736.143Z" stroke="black" stroke-miterlimit="10"/>
<path d="M817.133 362.258C793.663 362.098 770.203 361.948 746.733 361.788C745.133 361.778 743.283 361.878 742.313 363.158C741.713 363.948 741.613 364.998 741.543 365.988C739.343 395.978 740.233 426.098 741.123 456.158C741.243 460.098 741.803 464.798 745.323 466.588C746.683 467.278 748.263 467.378 749.783 467.458C780.003 469.098 837.453 471.358 840.543 469.938C844.483 468.128 841.323 461.058 843.623 457.378C846.313 453.078 852.193 452.398 857.253 452.168C860.693 452.008 863.723 454.688 865.263 457.778C866.803 460.868 867.243 464.358 868.083 467.698C868.193 468.128 868.323 468.578 868.673 468.848C868.983 469.088 869.403 469.128 869.793 469.158C873.133 469.388 876.503 469.318 879.823 468.938C880.513 468.858 881.283 468.718 881.673 468.158C882.133 467.498 881.863 466.598 881.543 465.858C878.883 459.698 873.763 455.018 869.383 449.928C857.753 436.398 851.053 419.468 843.173 403.458C836.103 389.098 827.953 375.258 817.123 362.248L817.133 362.258Z" stroke="black" stroke-miterlimit="10"/>
<path d="M863.933 468.998C865.263 467.438 863.423 464.968 863.273 462.928C863.123 460.888 862.253 458.588 860.303 457.978C859.613 457.768 858.883 457.798 858.163 457.828C855.483 457.948 852.813 458.058 850.133 458.178C847.993 458.268 846.323 460.258 845.863 462.348C845.403 464.438 845.873 466.608 846.343 468.698C846.473 469.278 846.633 469.898 847.083 470.278C847.463 470.588 847.963 470.678 848.453 470.738C853.093 471.338 863.063 470.018 863.923 469.008L863.933 468.998Z" stroke="black" stroke-miterlimit="10"/>
<path d="M865.713 536.208C860.243 532.408 865.253 521.508 866.273 513.738C867.683 503.018 867.733 492.118 866.423 481.378C866.073 478.548 865.183 476.318 866.023 474.948C868.693 470.598 877.283 473.178 882.373 472.628C883.423 472.518 884.573 472.428 885.443 473.028C885.893 473.338 886.203 473.798 886.513 474.248C892.313 482.808 898.103 491.368 903.903 499.928C908.383 506.548 912.963 513.388 914.643 521.218C914.893 522.398 915.043 523.738 914.333 524.718C909.703 531.028 902.283 535.218 894.483 535.898C890.743 536.228 886.993 535.788 883.243 535.648C877.383 535.418 867.973 537.758 865.733 536.208H865.713Z" stroke="black" stroke-miterlimit="10"/>
<path d="M855.973 537.508C856.783 537.468 857.653 537.398 858.273 536.888C858.943 536.338 859.143 535.418 859.293 534.568C860.213 529.368 860.513 524.048 860.183 518.778C860.073 517.108 857.883 516.608 856.203 516.568C850.673 516.448 845.143 516.338 839.623 516.218C837.913 516.178 835.603 515.538 835.743 513.838C835.913 511.668 836.113 509.488 836.353 507.328C836.593 505.168 836.943 502.978 838.563 501.668C839.913 500.588 841.773 500.478 843.503 500.428C848.633 500.288 853.763 500.248 858.903 500.308C859.103 500.308 859.303 500.308 859.493 500.248C860.203 500.018 860.363 499.108 860.403 498.358C860.793 490.518 863.203 476.698 861.573 474.838C859.843 472.848 843.253 474.628 834.003 475.038C805.093 476.318 778.023 474.038 749.383 469.938C747.323 469.648 744.903 469.458 743.493 470.988C742.293 472.288 742.363 474.288 742.513 476.058C742.923 480.868 743.333 485.668 743.743 490.478C743.933 492.698 740.673 492.648 738.443 492.708C700.233 493.748 662.003 494.198 623.783 494.038C622.733 494.038 621.503 494.408 620.973 495.308C620.443 496.208 620.403 497.308 620.373 498.358C620.103 509.728 619.843 521.108 619.573 532.478C619.543 533.868 619.593 535.448 620.643 536.358C621.493 537.088 622.713 537.128 623.833 537.128C653.853 537.128 672.903 535.618 702.893 537.048C717.943 537.768 823.893 539.118 855.993 537.508H855.973Z" stroke="black" stroke-miterlimit="10"/>
<path d="M616.053 496.638C616.893 499.408 614.463 521.088 613.833 534.738C613.823 534.978 613.813 535.218 613.743 535.448C613.383 536.728 611.713 536.998 610.383 537.018C599.793 537.188 589.203 536.998 578.633 536.458C577.943 536.418 577.223 536.468 577.013 536.118C576.653 535.528 578.953 524.668 578.483 512.878C578.013 501.188 576.183 497.418 577.483 494.428C578.583 491.888 581.163 491.358 583.393 491.378C585.413 491.468 593.793 491.818 602.173 492.178C606.753 492.378 614.613 491.858 616.053 496.628V496.638Z" stroke="black" stroke-miterlimit="10"/>
<path d="M515.723 364.228C517.773 364.178 519.833 362.688 521.563 363.778C523.963 365.288 523.783 368.778 523.403 371.588C522.573 377.878 522.253 384.228 522.453 390.568C523.313 417.988 524.183 445.428 523.503 472.858C523.403 477.108 523.253 481.418 522.053 485.498C521.693 486.718 521.183 487.998 520.133 488.708C519.243 489.308 518.113 489.408 517.033 489.478C490.163 491.278 463.123 490.658 436.353 487.648C434.163 487.668 432.293 488.128 430.103 488.148C429.523 488.148 428.863 488.128 428.473 487.698C428.153 487.348 428.113 486.818 428.103 486.348C427.713 476.168 427.313 465.988 426.923 455.808C426.873 454.398 426.813 452.968 427.113 451.588C427.263 450.888 427.503 450.208 427.733 449.528C431.913 437.208 433.273 424.048 432.963 411.038C432.923 409.348 432.853 407.658 432.623 405.988C432.403 404.418 432.053 402.878 431.723 401.328C429.493 390.618 428.963 379.558 430.153 368.678C430.323 367.108 430.613 365.388 431.833 364.388C432.833 363.568 434.213 363.448 435.503 363.358C459.183 361.738 473.773 364.578 497.503 364.808C500.483 364.838 512.743 364.298 515.723 364.228Z" stroke="black" stroke-miterlimit="10"/>
<path d="M427.053 362.848C427.533 365.558 426.173 386.578 425.503 398.428C425.463 399.128 425.413 399.858 425.043 400.448C424.423 401.458 423.123 401.748 422.073 402.298C418.223 404.288 417.723 409.498 417.723 413.828C417.723 422.308 417.743 430.788 417.753 439.268C417.753 441.028 417.753 442.818 418.273 444.498C422.293 457.658 423.523 471.668 421.843 485.328C421.743 486.108 421.513 487.048 420.753 487.258C420.453 487.338 420.133 487.278 419.823 487.218C417.413 486.718 414.993 486.228 412.583 485.728C410.023 485.198 408.153 482.838 407.453 480.318C406.753 477.798 408.653 474.708 407.213 472.518C406.163 470.928 403.443 473.388 402.773 475.178C402.103 476.968 402.393 478.948 402.693 480.828C403.023 482.948 403.593 485.408 405.553 486.298C408.943 487.848 412.343 489.388 415.733 490.938C417.663 491.818 419.713 492.798 420.833 494.598C421.863 496.248 421.933 498.308 421.983 500.258C422.233 512.018 422.483 523.768 422.733 535.528C422.753 536.688 421.213 537.108 420.053 537.148C399.503 537.848 366.373 540.578 360.943 536.738C358.223 534.818 360.013 530.378 361.573 527.438C368.053 515.238 369.433 501.078 372.573 487.618C374.933 477.518 378.333 467.698 381.793 457.918C392.043 428.958 402.873 400.218 413.703 371.468C414.833 368.478 415.253 364.698 417.873 362.858C420.493 361.018 426.543 359.818 427.063 362.828L427.053 362.848Z" stroke="black" stroke-miterlimit="10"/>
<path d="M426.173 403.518C417.303 404.418 420.873 420.808 421.373 429.698C421.643 434.638 418.073 444.068 423.023 444.318C425.893 444.458 426.753 441.198 427.053 440.058C429.493 430.678 429.253 422.928 430.053 413.268C430.273 410.658 432.183 402.908 426.183 403.518H426.173Z" stroke="black" stroke-miterlimit="10"/>
<path d="M810.013 350.708C811.413 352.298 811.403 355.618 809.293 355.748C802.793 356.128 796.293 356.428 789.783 356.648C757.233 357.748 724.643 356.788 692.083 355.838C685.213 355.638 671.833 359.068 671.403 352.208C670.753 341.848 672.553 292.268 673.023 261.518C673.193 250.378 673.363 239.208 672.313 228.118C672.033 225.128 671.293 221.628 668.543 220.428C667.603 220.018 666.553 219.948 665.533 219.898C651.603 219.118 637.633 218.888 623.683 219.208C621.073 219.268 618.373 219.338 615.943 218.368C613.513 217.398 611.403 215.128 611.503 212.508C611.613 209.498 612.123 205.878 614.873 204.658C616.043 204.138 617.383 204.198 618.673 204.268C638.313 205.308 658.033 204.818 677.603 202.808C680.033 202.558 682.243 205.408 683.883 207.228C691.933 216.198 699.463 225.778 708.983 233.168C714.293 237.288 720.173 240.678 725.163 245.178C727.433 247.228 729.493 249.488 731.503 251.788C737.883 259.088 743.733 266.858 749.003 274.998C751.713 279.178 754.273 283.468 757.313 287.408C764.203 296.318 773.363 303.178 781.193 311.278C791.163 321.588 808.603 349.118 810.003 350.708H810.013Z" stroke="black" stroke-miterlimit="10"/>
<path d="M606.873 204.278C603.563 204.438 597.573 204.218 592.923 204.188C592.373 204.188 591.813 204.188 591.283 204.348C589.843 204.808 589.083 206.348 588.583 207.778C587.643 210.458 587.043 213.268 586.823 216.108C586.653 218.278 589.523 219.158 591.683 219.298C595.153 219.518 598.623 219.748 602.093 219.968C604.213 220.108 606.703 220.078 607.983 218.388C608.713 217.418 608.833 216.128 608.883 214.908C609.003 211.888 608.733 204.188 606.873 204.278Z" stroke="black" stroke-miterlimit="10"/>
<path d="M583.133 203.968C586.723 205.168 584.073 211.758 583.323 215.468C583.113 216.498 582.813 217.628 581.933 218.178C578.713 220.208 574.653 220.208 570.843 220.148L536.973 219.558C534.363 219.508 531.663 219.488 529.273 220.518C525.923 221.968 523.713 225.328 522.743 228.848C521.773 232.368 521.883 236.078 521.983 239.718C522.123 244.498 522.273 249.278 522.413 254.058C519.523 253.828 515.713 255.538 514.253 253.018C513.733 252.118 513.833 251.008 513.943 249.978C514.503 244.778 515.073 239.578 515.633 234.378C515.943 231.488 516.113 228.158 514.033 226.138C512.263 224.418 509.513 224.318 507.043 224.318C505.193 224.318 503.303 224.338 501.573 224.988C499.843 225.638 498.293 227.098 498.073 228.928C496.713 239.858 495.673 250.828 494.963 261.828C494.703 265.768 494.503 269.828 495.833 273.548C496.273 274.768 497.503 276.158 498.613 275.478C498.943 275.278 499.153 274.928 499.333 274.598C500.583 272.298 501.243 269.678 501.223 267.058C501.213 265.228 500.873 263.388 501.183 261.588C501.493 259.788 502.673 257.948 504.473 257.648C507.553 257.118 509.423 261.118 509.243 264.248C509.063 267.378 508.033 270.798 509.733 273.428C510.633 274.818 512.793 273.268 513.253 271.678C514.083 268.758 513.303 265.588 514.003 262.638C514.703 259.688 518.273 256.988 520.633 258.888C521.973 259.968 522.133 261.918 522.163 263.638C522.503 282.498 522.383 301.028 521.633 319.868C521.203 330.778 519.353 342.028 520.383 352.898C520.553 354.718 520.643 356.828 519.283 358.038C518.523 358.708 517.483 358.928 516.483 359.098C510.543 360.058 504.483 359.698 498.473 359.378C472.293 357.978 421.433 359.358 419.843 357.548C417.953 355.398 424.113 344.798 427.033 338.648C429.273 333.928 430.753 328.898 432.333 323.918C444.743 284.708 463.423 247.758 476.803 208.868C477.233 207.608 477.693 206.298 478.613 205.338C480.343 203.538 483.153 203.458 485.653 203.508C518.713 204.098 578.813 202.538 583.113 203.978L583.133 203.968Z" stroke="black" stroke-miterlimit="10"/>
<path d="M674.653 198.208C676.073 200.748 669.403 200.108 666.493 200.238C617.473 202.338 568.303 196.388 519.353 199.798C518.873 199.828 518.193 199.698 518.213 199.208C518.443 194.398 518.673 189.578 518.903 184.768C519.183 178.908 519.403 172.748 516.823 167.478C515.063 163.888 512.033 160.768 511.603 156.788C511.473 155.548 511.333 154.308 511.203 153.068C511.123 152.358 510.983 151.538 510.363 151.178C509.863 150.898 509.233 151.018 508.723 151.278C506.183 152.558 506.003 156.258 507.243 158.818C508.483 161.378 510.683 163.368 511.973 165.898C513.443 168.788 513.613 172.148 513.723 175.388C513.913 181.168 514.003 186.948 513.993 192.738C513.993 194.898 513.853 197.338 512.223 198.768C510.753 200.048 508.603 200.038 506.653 199.958C499.113 199.648 482.803 199.848 482.603 199.398C481.033 195.868 484.483 183.888 488.503 177.078C490.693 173.368 492.953 169.708 495.233 166.048C502.243 154.818 509.583 143.448 519.963 135.228C540.343 119.088 571.013 118.878 594.393 128.358C596.343 129.148 598.283 130.028 599.973 131.288C601.623 132.528 602.993 134.098 604.373 135.638C611.323 143.398 618.863 150.638 627.053 157.068C643.363 169.878 669.353 188.708 674.673 198.198L674.653 198.208Z" stroke="black" stroke-miterlimit="10"/>
<path d="M428.443 536.028C465.373 534.448 502.373 534.298 539.313 535.588C549.593 535.948 559.923 536.408 570.153 535.248C572.263 535.008 572.843 532.248 572.883 530.128C573.093 518.688 573.253 509.798 573.463 498.358C573.483 497.038 571.543 492.938 566.523 492.318C558.983 491.388 539.163 492.578 537.083 492.328C535.003 492.078 512.603 495.538 488.033 492.858C484.673 492.488 481.733 492.758 478.923 494.658C477.053 495.918 476.913 498.448 478.753 499.758C480.593 501.068 483.023 501.068 485.273 501.018C491.603 500.878 497.923 500.728 504.253 500.588C505.983 500.548 508.223 500.888 508.563 502.588C508.993 504.718 506.003 505.688 503.823 505.728C482.593 506.098 461.373 506.458 440.143 506.828C439.073 506.848 437.963 506.858 437.003 506.388C436.043 505.918 435.303 504.828 435.593 503.808C436.033 502.288 438.103 502.148 439.683 502.288C448.013 503.028 456.413 503.038 464.743 502.308C467.293 502.088 470.033 501.708 471.893 499.948C473.753 498.188 473.923 495.558 472.783 494.678C469.743 492.338 461.853 493.008 455.953 492.938C447.963 492.848 439.983 492.758 431.993 492.668C430.733 492.658 429.353 492.678 428.393 493.498C427.413 494.338 427.183 495.728 427.033 497.008C425.523 509.988 425.983 523.198 428.413 536.048L428.443 536.028Z" stroke="black" stroke-miterlimit="10"/>
<path d="M892.703 740.118C892.203 743.248 889.343 742.378 874.413 742.408C859.483 742.438 845.963 745.868 845.543 737.968C845.123 730.068 845.693 718.938 846.833 696.448C847.973 673.958 844.724 614.888 846.754 594.858C848.784 574.828 843.974 557.918 850.494 552.538C855.564 548.348 877.694 546.918 886.354 556.318C889.934 560.198 891.363 565.558 892.313 570.758C894.373 581.918 894.803 593.308 895.063 604.648C896.103 649.978 894.163 730.808 892.683 740.128L892.703 740.118Z" stroke="black" stroke-miterlimit="10"/>
<path d="M837.033 550.538C837.753 550.518 838.583 550.568 839.003 551.148C839.273 551.528 839.273 552.018 839.273 552.478C839.043 580.828 838.813 609.188 838.583 637.538C838.583 638.408 838.533 639.378 837.913 640.008C837.313 640.608 836.383 640.688 835.533 640.728C828.573 641.028 821.603 641.328 814.643 641.638C811.523 641.778 808.363 641.908 805.283 641.328C804.913 641.258 804.483 641.128 804.343 640.778C803.343 638.238 803.273 635.458 803.213 632.728C803.003 623.628 802.803 614.528 802.593 605.418C802.533 602.938 802.483 600.448 802.633 597.968C803.483 584.088 803.713 570.168 803.313 556.278C803.093 548.838 809.173 550.628 813.963 550.988C821.523 551.558 829.453 550.708 837.033 550.538Z" stroke="black" stroke-miterlimit="10"/>
<path d="M833.653 648.208C834.503 648.178 835.513 648.228 835.983 648.938C836.233 649.318 836.263 649.798 836.293 650.248C837.463 674.138 837.473 698.078 836.313 721.968C835.993 728.568 835.583 735.218 836.353 741.778C836.433 742.488 836.283 743.508 835.563 743.488C824.783 743.238 814.003 742.998 803.223 742.748C802.903 742.748 802.573 742.728 802.303 742.578C801.713 742.248 801.633 741.438 801.623 740.758C801.363 710.458 802.023 680.158 803.623 649.908C803.643 649.458 803.683 648.988 803.933 648.618C804.343 648.008 805.183 647.888 805.923 647.848C815.143 647.248 824.403 648.538 833.673 648.228L833.653 648.208Z" stroke="black" stroke-miterlimit="10"/>
<path d="M793.153 550.598C793.323 550.598 793.493 550.588 793.663 550.628C794.323 550.778 794.613 551.538 794.783 552.188C796.193 557.748 795.964 563.568 795.754 569.298C795.364 579.948 795.073 590.608 794.893 601.268C794.823 605.548 794.764 609.838 795.204 614.098C795.394 615.928 795.663 617.738 795.903 619.558C796.793 626.468 797.083 633.458 796.773 640.428C796.763 640.758 796.733 641.108 796.523 641.368C796.233 641.728 795.694 641.758 795.224 641.758C784.964 641.758 774.714 641.758 764.454 641.758C763.224 641.758 761.903 641.728 760.933 640.978C759.703 640.038 759.493 638.308 759.423 636.778C758.983 626.728 760.474 616.688 760.744 606.638C760.924 599.968 760.564 593.308 760.384 586.638C760.074 575.278 760.284 563.908 760.994 552.558C761.084 551.068 763.053 550.618 764.563 550.588C774.123 550.408 783.573 550.928 793.153 550.618V550.598Z" stroke="black" stroke-miterlimit="10"/>
<path d="M793.303 648.828C794.213 648.808 795.273 648.868 795.803 649.598C796.093 649.998 796.153 650.518 796.183 651.008C796.673 657.448 795.253 663.858 794.753 670.298C794.453 674.188 794.483 678.088 794.513 681.988C794.673 701.498 794.823 721.008 794.983 740.518C794.983 741.148 794.933 741.888 794.413 742.228C794.123 742.418 793.743 742.428 793.393 742.438C782.313 742.628 771.233 742.818 760.163 743.008C758.533 743.038 758.043 740.818 758.103 739.188C758.533 728.408 759.833 717.628 759.063 706.868C758.783 702.908 758.213 698.948 758.383 694.978C759.023 680.108 759.873 665.248 760.923 650.398C760.963 649.818 761.043 649.168 761.513 648.828C761.853 648.578 762.303 648.568 762.723 648.558C772.963 648.478 783.073 648.828 793.313 648.828H793.303Z" stroke="black" stroke-miterlimit="10"/>
<path d="M748.153 551.338C749.393 551.338 750.723 551.358 751.733 552.068C753.303 553.178 753.443 555.428 753.423 557.348C753.143 585.018 752.683 612.698 752.023 640.368C752.023 640.688 752.003 641.018 751.863 641.308C751.483 642.078 750.433 642.148 749.583 642.108C739.973 641.688 731.653 643.068 722.043 642.658C721.583 642.638 718.683 642.518 718.683 639.968C718.713 610.798 717.683 560.598 718.073 553.198C718.293 549.008 738.373 551.378 748.153 551.338Z" stroke="black" stroke-miterlimit="10"/>
<path d="M705.463 550.898C706.933 551.008 708.633 551.298 709.363 552.588C709.713 553.208 709.763 553.938 709.803 554.648C711.503 583.178 713.193 611.838 710.703 640.318C710.623 641.268 709.763 642.008 708.843 642.268C707.923 642.528 706.943 642.408 705.993 642.308C698.163 641.438 690.223 641.468 682.403 642.418C680.583 642.638 678.773 642.908 676.933 642.958C675.873 642.988 674.933 642.158 674.503 641.188C674.073 640.218 674.043 639.118 674.023 638.048C673.863 629.358 673.703 620.668 673.533 611.988C673.473 608.598 673.403 605.218 673.533 601.828C674.163 584.878 672.803 559.678 674.803 554.078C676.483 549.378 684.743 550.788 689.603 551.038C694.863 551.308 700.143 550.508 705.453 550.918L705.463 550.898Z" stroke="black" stroke-miterlimit="10"/>
<path d="M750.933 742.158C750.403 742.798 749.513 742.378 739.653 742.718L719.673 743.428C719.393 743.428 719.123 743.368 717.873 743.058C717.593 741.428 717.563 740.128 717.323 728.698C717.083 717.258 716.833 705.828 716.583 693.878C717.173 681.928 717.773 669.998 718.113 663.098C718.453 656.198 715.723 650.868 718.803 649.288C724.783 646.218 741.043 647.258 751.783 648.518C752.193 648.568 752.643 648.638 752.933 648.938C753.283 649.318 753.253 649.888 753.193 650.398C751.813 663.598 751.383 676.898 751.913 690.168C752.103 694.978 752.424 699.778 752.504 704.588C752.634 711.828 752.223 719.058 751.823 726.288C751.543 731.368 753.483 739.098 750.933 742.148V742.158Z" stroke="black" stroke-miterlimit="10"/>
<path d="M710.733 743.428C707.863 743.588 704.613 743.748 694.493 743.228C684.383 742.488 675.283 744.508 674.213 742.598C674.023 742.268 673.863 738.888 673.803 736.978C673.733 735.068 674.443 712.528 673.473 684.368C674.993 656.268 673.473 654.178 674.523 649.368C675.193 646.268 683.363 648.198 687.803 648.928C693.543 649.878 699.693 648.868 705.473 648.538C706.793 648.468 708.283 648.458 709.203 649.398C709.643 649.848 709.883 650.458 710.073 651.068C711.333 655.028 711.183 659.278 711.043 663.428C710.313 685.108 710.343 706.818 711.133 728.498C711.293 732.818 711.253 734.588 710.873 738.758C710.673 740.968 711.313 743.388 710.753 743.418L710.733 743.428Z" stroke="black" stroke-miterlimit="10"/>
<path d="M666.453 725.938C656.893 726.138 647.333 726.328 637.773 726.528C635.923 726.568 634.973 724.228 635.103 722.378C635.233 720.528 635.873 718.578 635.103 716.888C633.803 714.048 629.833 714.188 626.713 714.078C626.493 714.078 626.263 714.058 626.053 713.978C625.283 713.688 625.113 712.688 625.073 711.858C624.073 691.348 626.123 670.808 626.193 650.268C626.243 632.908 624.883 615.588 624.573 598.228C624.303 582.778 624.873 567.318 626.293 551.928L626.513 549.518C637.843 547.338 650.063 550.008 661.483 550.378C663.033 550.428 664.693 550.518 665.913 551.468C667.753 552.898 667.843 555.598 667.763 557.928C666.943 583.188 666.443 608.448 666.243 633.718C666.003 664.458 666.223 695.198 666.443 725.938H666.453Z" stroke="black" stroke-miterlimit="10"/>
<path d="M667.093 742.338C653.623 743.448 640.053 743.428 626.583 742.258C626.383 742.238 626.183 742.218 625.993 742.168C624.683 741.788 624.473 740.048 624.523 738.688C624.713 733.198 624.913 727.718 625.103 722.228C625.173 720.268 625.543 717.868 627.383 717.198C629.443 716.448 631.473 718.688 631.833 720.848C632.193 723.008 631.623 725.268 632.093 727.408C632.563 729.548 634.883 731.598 634.883 731.598C644.373 730.978 653.923 731.178 663.433 731.118C664.243 731.118 665.163 731.148 665.713 731.748C666.023 732.078 666.153 732.538 666.273 732.968C667.133 735.998 667.413 739.198 667.093 742.338Z" stroke="black" stroke-miterlimit="10"/>
<path d="M492.443 645.208C492.563 641.178 492.693 637.158 492.813 633.128C492.833 632.348 492.893 631.488 493.443 630.948C493.813 630.578 494.343 630.428 494.843 630.298C498.023 629.498 501.313 629.168 504.583 629.308C505.673 629.358 506.853 629.428 507.753 628.808C508.653 628.188 508.823 626.538 507.813 626.138C507.623 626.058 507.413 626.038 507.213 626.018C503.693 625.648 500.173 625.288 496.643 624.918C495.553 624.808 494.363 624.648 493.623 623.848C492.943 623.118 492.813 622.038 492.733 621.048C490.853 598.338 495.433 575.468 493.553 552.758C493.493 552.008 493.463 551.148 494.013 550.638C494.523 550.168 495.293 550.208 495.983 550.278C510.063 551.628 524.073 551.448 538.223 551.168C547.423 550.988 561.033 548.668 565.823 550.628C567.833 551.448 566.473 559.338 566.663 563.708C566.753 565.728 566.803 567.828 565.973 569.678C565.143 571.528 563.163 573.008 561.183 572.588C559.723 572.278 558.803 570.748 558.593 569.268C558.383 567.788 558.703 566.288 558.783 564.798C558.863 563.178 558.663 561.538 558.183 559.988C557.793 558.718 556.963 557.328 555.643 557.258C553.503 557.148 552.963 560.178 553.193 562.308L554.233 571.648C554.383 572.968 554.583 574.398 555.543 575.308C557.963 577.628 562.873 574.768 565.013 577.358C565.783 578.288 565.833 579.598 565.843 580.808C566.023 595.178 568.453 621.388 566.383 623.918C565.443 625.068 543.423 625.648 531.953 626.518C529.943 626.668 529.003 624.108 528.763 622.108C527.673 613.178 527.393 604.158 527.923 595.178C528.013 593.628 528.153 592.008 528.983 590.698C530.833 587.768 534.993 587.728 538.453 587.808C544.783 587.948 551.123 587.378 557.323 586.098C559.013 585.748 560.943 585.148 561.583 583.538C562.273 581.808 559.683 580.738 557.823 580.698C548.413 580.518 539.003 581.088 529.683 582.388C528.353 582.578 526.983 582.798 525.883 583.568C523.133 585.508 522.923 589.428 522.973 592.788C523.133 602.958 523.293 613.128 523.453 623.298C523.483 625.098 523.553 627.038 524.653 628.468C526.333 630.668 529.583 630.688 532.343 630.508C542.573 629.838 552.803 629.178 563.033 628.508C564.353 628.418 566.183 628.768 566.183 630.098C566.183 631.538 564.143 631.738 562.703 631.798C559.173 631.948 556.003 634.298 554.143 637.298C552.283 640.298 551.583 643.878 551.343 647.398C551.193 649.538 551.283 651.908 552.743 653.478C554.643 655.538 557.933 655.298 560.463 656.498C563.173 657.788 564.823 660.708 565.343 663.668C565.863 666.628 565.743 669.718 565.033 672.638C564.133 676.328 564.553 690.128 564.023 702.768C563.343 718.938 565.723 741.518 561.973 743.168C557.233 745.258 528.513 746.548 512.073 744.348C505.993 743.538 494.863 744.798 493.703 742.328C491.853 738.388 492.953 711.618 493.133 696.628C493.143 695.788 493.283 694.758 494.063 694.458C494.403 694.328 494.773 694.378 495.133 694.428C498.243 694.878 501.363 695.178 504.503 695.338C505.403 695.388 506.363 695.408 507.153 694.968C508.173 694.408 508.923 693.278 509.033 692.118C509.663 685.378 508.343 685.038 508.833 679.098C508.903 678.198 509.603 670.978 508.883 670.438C508.253 669.968 507.423 669.918 506.643 669.878C502.863 669.698 499.073 669.518 495.293 669.338C494.663 669.308 493.963 669.238 493.573 668.758C493.263 668.368 493.243 667.828 493.243 667.328C493.213 660.008 492.263 652.528 492.483 645.218L492.443 645.208Z" stroke="black" stroke-miterlimit="10"/>
<path d="M566.343 641.978C564.673 645.268 567.883 650.168 565.123 652.608C563.323 654.198 560.263 653.398 558.793 651.498C557.323 649.598 557.103 647.018 557.263 644.618C557.393 642.588 557.793 640.488 558.993 638.848C560.193 637.208 562.373 636.148 564.313 636.758C566.253 637.368 567.263 640.158 566.343 641.968V641.978Z" stroke="black" stroke-miterlimit="10"/>
<path d="M493.903 675.108C494.823 672.618 499.563 674.358 502.213 674.468C502.963 674.498 503.803 674.588 504.273 675.168C504.633 675.618 504.673 676.238 504.703 676.808L505.213 688.708C505.233 689.098 505.233 689.528 505.003 689.838C504.683 690.258 504.073 690.288 503.553 690.278C500.233 690.228 496.913 690.168 493.583 690.118C492.723 685.218 492.923 677.778 493.903 675.108Z" stroke="black" stroke-miterlimit="10"/>
<path d="M805.203 749.338C804.903 749.338 804.593 749.338 804.323 749.458C803.673 749.758 803.523 750.588 803.453 751.298C801.813 768.638 800.173 786.008 800.053 803.428C800.033 806.468 800.253 809.938 802.623 811.848C803.623 812.648 804.873 813.058 806.103 813.398C815.173 815.948 824.833 816.338 834.083 814.528C834.743 814.398 835.423 814.248 835.913 813.788C836.383 813.348 836.593 812.708 836.773 812.098C842.513 792.888 840.553 772.338 838.543 752.388C838.453 751.498 838.333 750.528 837.713 749.878C835.243 747.248 826.373 749.198 822.873 749.328C816.983 749.538 811.083 749.368 805.193 749.328L805.203 749.338Z" stroke="black" stroke-miterlimit="10"/>
<path d="M859.873 749.268C868.043 749.338 876.223 749.408 884.393 749.478C885.933 749.488 887.523 749.518 888.923 750.138C892.903 751.898 893.503 757.198 893.513 761.548C893.553 782.968 893.433 804.378 893.143 825.798C893.113 827.798 891.803 829.828 889.953 830.608C888.103 831.388 886.043 831.418 884.043 831.438C866.583 831.628 849.123 831.818 831.663 832.008C830.873 832.008 830.043 832.008 829.333 831.668C828.833 831.418 828.423 831.008 828.083 830.568C825.423 827.128 827.273 821.258 831.433 819.958C834.263 819.078 837.733 819.988 839.973 818.058C841.163 817.028 841.683 815.438 842.043 813.898C843.283 808.648 843.383 803.198 843.463 797.798C843.703 783.068 843.943 768.348 844.193 753.618C844.213 752.378 844.293 751.008 845.163 750.138C845.863 749.438 846.913 749.238 847.903 749.118C851.433 748.668 856.303 749.238 859.863 749.268H859.873Z" stroke="black" stroke-miterlimit="10"/>
<path d="M632.493 833.258C652.653 832.478 672.803 831.708 692.963 830.928C712.333 830.188 731.753 829.438 751.103 830.638C755.553 830.918 760.013 831.008 764.473 831.108C782.103 831.488 799.743 831.868 817.373 832.238C818.793 832.268 820.263 832.288 821.573 831.738C822.883 831.188 824.003 829.908 823.883 828.488C823.703 826.258 823.413 823.798 821.783 822.268C819.573 820.198 816.093 820.798 813.083 821.058C808.883 821.418 804.613 820.828 800.673 819.338C800.233 819.168 799.783 818.988 799.403 818.728C798.043 817.788 797.623 815.988 797.333 814.358C793.803 794.118 795.053 773.378 796.783 752.898C796.853 752.058 796.893 751.108 796.333 750.478C795.753 749.818 794.763 749.768 793.883 749.768L786.193 749.748C766.473 751.218 746.623 751.228 726.873 750.228C714.823 749.618 700.073 749.548 688.023 748.938C665.613 747.788 645.673 748.518 623.243 748.938C619.673 749.008 618.173 752.008 617.603 755.528C615.043 771.408 618.383 788.608 617.203 804.648C616.873 809.208 616.383 828.748 619.603 831.998C622.823 835.248 627.933 833.428 632.503 833.248L632.493 833.258Z" stroke="black" stroke-miterlimit="10"/>
<path d="M568.073 750.688C569.133 750.668 570.323 750.698 571.043 751.478C571.663 752.148 571.693 753.158 571.703 754.068C571.793 779.608 571.893 805.148 571.983 830.678C571.983 831.718 571.883 832.958 570.973 833.468C570.563 833.698 570.073 833.718 569.613 833.738C545.913 834.498 522.183 834.118 498.523 832.588C496.773 832.478 494.823 832.258 493.683 830.928C492.723 829.808 492.623 828.208 492.563 826.738C492.253 818.758 491.943 810.778 491.623 802.798C490.953 785.788 490.303 768.618 493.373 751.878C493.493 751.248 493.633 750.568 494.103 750.128C494.713 749.558 495.653 749.578 496.493 749.628C508.253 750.378 520.053 751.678 531.803 751.438C543.893 751.188 556.003 750.688 568.093 750.688H568.073Z" stroke="black" stroke-miterlimit="10"/>
<path d="M477.293 549.708C480.013 549.738 483.293 550.118 484.483 552.568C484.823 553.278 484.933 554.078 485.033 554.868C487.043 570.628 488.083 586.508 488.163 602.398C488.163 603.508 488.133 604.718 487.443 605.578C486.643 606.578 485.223 606.798 483.943 606.928C439.803 611.478 395.093 603.408 350.943 607.838C349.573 607.978 348.013 608.058 347.023 607.108C345.983 606.108 346.073 604.448 346.243 603.018C348.223 586.868 351.833 570.918 357.003 555.488C357.493 554.008 358.053 552.468 359.233 551.458C360.653 550.238 362.663 550.048 364.533 549.928C381.813 548.838 398.813 551.208 415.933 550.608C436.383 549.888 456.823 549.468 477.283 549.708H477.293Z" stroke="black" stroke-miterlimit="10"/>
<path d="M387.553 833.918C399.373 833.328 470.283 837.698 481.843 831.868C489.463 828.028 482.743 717.038 484.383 648.138C484.603 638.808 484.253 629.458 483.563 620.148C483.493 619.178 483.403 618.178 482.923 617.328C481.733 615.258 478.863 615.068 476.473 615.138C463.283 615.528 450.093 615.908 436.913 616.298C409.533 617.098 381.643 618.048 354.393 615.208C352.003 614.958 349.233 614.818 347.573 616.558C346.563 617.628 346.233 619.148 345.943 620.588C341.753 641.588 337.643 662.598 333.523 683.608C330.643 698.288 327.773 712.978 324.893 727.658C323.703 733.728 322.513 739.788 321.373 745.868C316.223 773.198 311.943 800.688 308.553 828.288C308.423 829.368 308.293 830.498 308.693 831.508C309.783 834.288 313.643 834.288 316.603 833.858C333.803 831.358 371.583 834.728 387.563 833.928L387.553 833.918Z" stroke="black" stroke-miterlimit="10"/>
<path d="M961.923 678.368C963.373 677.138 975.833 677.008 987.873 676.048C999.923 675.298 1001.97 676.018 1003.99 676.958C1005.74 677.778 1007.25 681.418 1008.19 684.228C1009.41 686.868 1010.81 690.588 1012.38 690.828C1015.23 691.258 1017.41 690.088 1017.65 689.408C1018.37 687.408 989.893 641.558 987.793 637.588C979.133 621.208 977.663 621.948 967.393 606.518C961.913 598.278 956.433 590.038 950.953 581.798C948.903 578.708 946.813 575.578 943.973 573.198C941.133 570.818 937.393 569.248 933.733 569.838C916.793 572.578 924.063 601.028 923.883 611.778C923.503 635.508 923.113 659.238 922.733 682.968C922.693 685.608 922.403 689.368 924.873 690.298C934.673 693.978 945.813 690.698 956.273 690.208C958.153 690.118 960.323 689.868 961.363 688.288C962.413 686.698 961.773 684.608 961.513 682.728C961.253 680.848 961.073 679.068 961.903 678.358L961.923 678.368Z" stroke="black" stroke-miterlimit="10"/>
<path d="M968.073 683.368C966.643 685.268 968.123 689.868 971.573 690.768C974.153 690.808 980.923 690.898 987.693 690.788C994.453 690.478 997.333 691.378 999.893 690.078C1002.19 688.908 1005.71 684.678 1002.42 682.228C998.573 679.358 968.913 682.268 968.083 683.368H968.073Z" stroke="black" stroke-miterlimit="10"/>
<path d="M1010.96 697.348C1013.89 697.188 1016.95 697.048 1019.63 698.248C1021.66 699.158 1023.29 700.758 1024.82 702.368C1029.79 707.618 1034.19 713.398 1037.95 719.568C1039.47 722.068 1040.92 724.778 1040.94 727.708C1040.96 731.988 1037.8 735.778 1033.99 737.738C1030.18 739.698 1025.82 740.188 1021.55 740.578C1001.17 742.478 984.093 742.228 963.623 741.618C962.233 741.578 960.603 741.388 959.933 740.168C959.783 739.888 959.703 739.588 959.623 739.278C956.783 728.548 955.693 717.358 956.383 706.288C956.483 704.748 956.623 703.158 957.393 701.818C958.753 699.428 961.723 698.458 964.463 698.308C981.023 697.428 994.333 698.228 1010.96 697.328V697.348Z" stroke="black" stroke-miterlimit="10"/>
<path d="M931.393 700.058C935.503 700.438 939.443 700.088 943.463 700.098C944.933 700.098 946.623 700.208 947.533 701.368C947.973 701.928 948.143 702.648 948.303 703.338C951.033 715.468 951.813 728.028 950.613 740.398C950.553 741.018 950.463 741.688 950.003 742.108C949.563 742.508 948.923 742.568 948.333 742.598C941.283 742.998 934.233 743.408 927.173 743.808C925.613 743.898 923.863 743.918 922.743 742.838C921.863 741.988 921.613 740.698 921.423 739.488C920.043 730.638 919.213 721.708 918.933 712.758C918.823 709.228 918.873 705.438 920.873 702.538C922.873 699.638 927.243 699.668 931.383 700.058H931.393Z" stroke="black" stroke-miterlimit="10"/>
<path d="M1039.5 747.328C1040.35 747.288 1041.24 747.248 1042 747.628C1042.83 748.048 1043.35 748.878 1043.83 749.668C1048.78 757.838 1053.72 766.008 1058.67 774.178C1059.44 775.458 1060.15 777.288 1059.02 778.268C1058.55 778.678 1057.89 778.778 1057.28 778.858C1042.42 780.788 1027.38 781.328 1012.43 780.468C1011.44 780.408 1010.36 780.308 1009.67 779.598C1009.12 779.028 1008.95 778.208 1008.82 777.428C1007.39 769.188 1006.7 760.818 1006.76 752.448C1006.76 751.518 1006.82 750.488 1007.44 749.798C1007.99 749.178 1008.85 748.968 1009.66 748.818C1019.21 747.018 1029.78 747.818 1039.5 747.328Z" stroke="black" stroke-miterlimit="10"/>
<path d="M998.533 748.488C998.713 758.278 998.883 768.068 999.063 777.868C999.073 778.578 998.873 779.538 998.153 779.558C973.403 780.128 948.653 780.568 923.903 780.888C922.813 780.898 921.463 780.748 921.463 780.748C921.063 779.738 920.943 779.428 920.943 779.088C920.943 778.758 920.883 770.248 920.823 761.738C920.763 753.228 920.753 752.278 920.773 751.248C921.333 750.478 922.143 749.378 923.723 749.268C925.093 749.248 937.483 749.098 949.873 748.938C966.103 748.728 982.293 747.688 998.523 748.508L998.533 748.488Z" stroke="black" stroke-miterlimit="10"/>
<path d="M971.223 833.458C945.963 832.528 922.213 835.278 920.773 831.998C917.183 823.798 919.513 790.608 921.263 788.758C923.593 786.288 925.743 785.848 942.453 786.148C959.753 786.458 977.083 787.438 994.373 787.118C995.953 787.088 997.663 787.098 998.913 788.068C1000.61 789.388 1000.73 791.858 1000.7 794.008C1000.53 806.028 997.373 816.828 999.913 828.578C1000.74 832.418 993.983 834.288 971.233 833.438L971.223 833.458Z" stroke="black" stroke-miterlimit="10"/>
<path d="M1049.5 743.848C1063.17 743.848 1077.2 782.368 1083.8 802.118C1085.89 808.378 1088.9 814.338 1092.7 819.738C1093.81 821.318 1095.02 822.898 1095.54 824.758C1096.06 826.618 1095.74 828.868 1094.21 830.058C1092.93 831.048 1091.17 831.068 1089.54 831.048C1061.89 830.668 1015.61 836.368 1010.71 833.468C1004.98 830.078 1004.88 809.028 1005.78 797.368C1005.93 795.358 1006.15 793.268 1007.28 791.598C1010.09 787.428 1008.88 787.758 1010.09 787.428C1015.56 785.938 1043.34 788.968 1060.45 785.838C1061.58 785.628 1062.76 785.398 1063.68 784.708C1065 783.728 1065.56 782.018 1065.76 780.388C1067.07 769.458 1061.54 764.498 1055.43 755.338C1052.9 751.548 1046.85 743.848 1049.5 743.848Z" stroke="black" stroke-miterlimit="10"/>
<path d="M727.053 956.178C780.133 955.338 833.213 954.498 886.283 953.648C910.013 953.268 933.743 952.898 957.463 953.428C992.483 954.208 1027.52 956.968 1062.48 954.798C1072.34 954.188 1082.2 953.578 1092.06 952.958C1102.48 952.308 1112.95 951.658 1123.11 949.298C1127.91 948.188 1133.13 946.278 1135.31 941.858C1136.61 939.208 1136.57 936.118 1136.35 933.168C1134.57 909.438 1123.5 887.548 1112.64 866.378C1109.32 859.908 1105.49 852.958 1098.78 850.178C1094.89 848.568 1090.54 848.618 1086.34 848.808C1083.66 848.928 1080.98 849.098 1078.3 849.258C1006.2 853.538 936.793 845.868 864.563 845.178C826.533 844.808 782.903 847.248 744.893 846.208C715.363 845.398 688.983 846.948 659.463 845.908C624.853 844.698 590.213 846.488 555.583 846.988C488.633 847.948 435.033 846.918 368.083 846.208C358.873 846.108 335.813 842.158 326.693 843.478C321.763 844.198 316.493 845.228 313.033 848.808C309.643 852.308 308.733 857.448 307.983 862.258C305.673 877.068 303.363 891.878 301.053 906.688C299.163 918.828 297.323 931.618 301.663 943.108C302.163 944.448 302.753 945.758 303.503 946.968C308.403 954.858 336.833 956.118 346.113 955.738C420.953 952.638 476.883 959.938 551.343 956.588C609.423 953.968 668.913 954.868 727.033 956.178H727.053Z" stroke="black" stroke-miterlimit="10"/>
<path d="M432.813 908.988C437.713 908.008 442.343 912.498 443.403 917.378C444.463 922.258 442.933 927.288 441.423 932.058C439.683 932.148 437.943 932.248 436.193 932.338C435.773 925.058 435.343 917.768 434.923 910.488C430.083 911.238 424.553 918.468 420.023 916.608C415.493 914.748 412.063 909.288 414.173 904.878C416.383 900.258 422.593 899.658 427.713 899.708C428.443 902.788 426.683 906.268 423.763 907.488C421.513 904.168 419.153 900.448 419.693 896.468C420.233 892.488 425.443 889.268 428.373 892.018C428.963 887.278 433.453 882.828 438.123 883.808C442.793 884.788 444.343 892.658 439.883 894.368C438.533 892.798 437.803 890.698 437.903 888.628C442.843 887.038 447.643 894.408 444.183 898.288C450.543 896.398 457.933 901.848 458.023 908.478C454.603 911.358 448.763 910.598 446.193 906.928C449.733 905.168 454.443 909.358 453.113 913.078C449.353 914.488 444.963 914.048 441.553 911.938C443.603 910.848 446.443 913.228 445.733 915.438C443.463 918.778 437.023 914.718 439.063 911.228C441.103 912.678 440.603 916.208 438.523 917.608C436.443 919.008 433.563 918.608 431.393 917.348C429.363 916.158 427.693 914.098 427.623 911.758C427.553 909.418 429.593 907.018 431.923 907.258C434.253 907.498 435.603 911.008 433.743 912.428L431.183 905.608C430.463 903.708 429.743 901.678 430.123 899.678C430.503 897.678 432.463 895.838 434.433 896.358C436.403 896.878 436.643 900.428 434.633 900.718C432.853 901.108 431.003 899.178 431.483 897.418C434.523 896.318 437.843 895.488 440.953 896.378C444.063 897.268 446.703 900.428 445.983 903.568C445.263 906.708 440.233 908.058 438.663 905.228C440.663 904.778 440.863 908.608 438.913 909.238C436.963 909.868 435.003 908.438 433.443 907.108C432.623 905.558 431.113 909.318 432.823 908.978L432.813 908.988Z" stroke="black" stroke-miterlimit="10"/>
<path d="M983.753 911.378C988.653 910.398 993.283 914.888 994.343 919.768C995.403 924.648 993.873 929.678 992.363 934.448C990.623 934.538 988.883 934.638 987.133 934.728C986.713 927.448 986.283 920.158 985.863 912.878C981.023 913.628 975.493 920.858 970.963 918.998C966.433 917.138 963.003 911.678 965.113 907.268C967.323 902.648 973.533 902.048 978.653 902.098C979.383 905.178 977.623 908.658 974.703 909.878C972.453 906.558 970.093 902.838 970.633 898.858C971.173 894.878 976.383 891.658 979.313 894.408C979.903 889.668 984.393 885.218 989.063 886.198C993.733 887.178 995.283 895.048 990.823 896.758C989.473 895.188 988.743 893.088 988.843 891.018C993.783 889.428 998.583 896.798 995.123 900.678C1001.48 898.788 1008.87 904.238 1008.96 910.868C1005.54 913.748 999.703 912.988 997.133 909.318C1000.67 907.558 1005.38 911.748 1004.05 915.468C1000.29 916.878 995.903 916.438 992.493 914.328C994.543 913.238 997.383 915.618 996.673 917.828C994.403 921.168 987.963 917.108 990.003 913.618C992.043 915.068 991.543 918.598 989.463 919.998C987.383 921.398 984.503 920.998 982.333 919.738C980.303 918.548 978.633 916.488 978.563 914.148C978.493 911.808 980.533 909.408 982.863 909.648C985.193 909.888 986.543 913.398 984.683 914.818L982.123 907.998C981.403 906.098 980.683 904.068 981.063 902.068C981.443 900.068 983.403 898.228 985.373 898.748C987.343 899.268 987.583 902.818 985.573 903.108C983.793 903.498 981.943 901.568 982.423 899.808C985.463 898.708 988.783 897.878 991.893 898.768C995.003 899.658 997.643 902.818 996.923 905.958C996.203 909.098 991.173 910.448 989.603 907.618C991.603 907.168 991.803 910.998 989.853 911.628C987.903 912.258 985.943 910.828 984.383 909.498C983.563 907.948 982.053 911.708 983.763 911.368L983.753 911.378Z" stroke="black" stroke-miterlimit="10"/>
<path d="M531.463 907.558C533.303 905.468 536.053 909.158 536.293 911.928C536.993 920.258 536.763 928.658 535.623 936.928C533.223 936.988 530.833 937.048 528.433 937.108C528.983 927.968 529.533 918.818 530.083 909.678C525.703 909.218 525.523 918.058 521.453 916.368C518.503 915.138 515.443 913.358 514.353 910.348C513.263 907.338 515.493 903.188 518.663 903.648C519.963 905.538 519.613 908.388 517.883 909.898C514.053 908.348 511.763 903.738 512.833 899.758C513.903 895.778 518.203 892.928 522.283 893.508C524.173 893.778 526.163 894.978 526.413 896.868C526.673 898.888 524.813 900.598 522.883 901.268C519.063 902.608 514.243 900.938 512.563 897.248C510.883 893.558 513.243 888.468 517.243 887.848C521.243 887.228 525.103 892.068 523.213 895.648C522.583 891.718 525.403 887.878 528.933 886.038C532.463 884.198 536.573 883.918 540.553 883.668C542.083 883.568 544.213 884.028 544.123 885.558C543.923 889.078 543.423 893.118 540.473 895.038C537.523 896.958 532.403 893.338 534.573 890.568C537.123 891.908 538.943 894.538 539.303 897.388L530.153 898.398C529.943 896.348 529.733 894.298 529.523 892.248C533.453 892.048 537.533 891.868 541.173 893.378C544.813 894.888 547.853 898.598 547.253 902.488C545.203 903.468 542.693 903.418 540.683 902.368C543.193 900.268 546.493 899.128 549.763 899.248C552.333 904.348 550.963 911.118 546.623 914.828C542.283 918.538 535.383 918.818 530.743 915.488C533.313 914.038 537.033 915.468 537.963 918.268C533.193 921.238 525.613 917.668 525.543 912.048C525.463 906.428 534.103 902.998 537.453 907.508C535.893 904.798 534.273 901.668 535.203 898.688C536.133 895.708 541.113 894.438 542.243 897.348C538.923 899.018 534.383 895.578 535.083 891.928C541.053 890.778 547.423 891.788 552.743 894.748C549.473 896.758 544.873 896.258 542.113 893.598C544.503 891.008 549.523 892.968 550.173 896.438C550.823 899.908 547.803 903.328 544.333 903.928C542.513 904.248 540.623 904.128 538.853 903.578C540.673 906.158 540.223 910.078 537.873 912.178C535.523 914.278 533.813 909.648 531.453 907.558H531.463Z" stroke="black" stroke-miterlimit="10"/>
<path d="M818.753 907.558C820.593 905.468 823.343 909.158 823.583 911.928C824.283 920.258 824.053 928.658 822.913 936.928C820.513 936.988 818.123 937.048 815.723 937.108C816.273 927.968 816.823 918.818 817.373 909.678C812.993 909.218 812.813 918.058 808.743 916.368C805.793 915.138 802.733 913.358 801.643 910.348C800.553 907.338 802.783 903.188 805.953 903.648C807.253 905.538 806.903 908.388 805.173 909.898C801.343 908.348 799.053 903.738 800.123 899.758C801.193 895.778 805.493 892.928 809.573 893.508C811.463 893.778 813.453 894.978 813.703 896.868C813.963 898.888 812.103 900.598 810.173 901.268C806.353 902.608 801.533 900.938 799.853 897.248C798.173 893.558 800.533 888.468 804.533 887.848C808.533 887.228 812.393 892.068 810.503 895.648C809.873 891.718 812.693 887.878 816.223 886.038C819.753 884.198 823.863 883.918 827.843 883.668C829.373 883.568 831.503 884.028 831.413 885.558C831.213 889.078 830.713 893.118 827.763 895.038C824.813 896.958 819.693 893.338 821.863 890.568C824.413 891.908 826.233 894.538 826.593 897.388L817.443 898.398C817.233 896.348 817.023 894.298 816.813 892.248C820.743 892.048 824.823 891.868 828.463 893.378C832.103 894.888 835.143 898.598 834.543 902.488C832.493 903.468 829.983 903.418 827.973 902.368C830.483 900.268 833.783 899.128 837.053 899.248C839.623 904.348 838.253 911.118 833.913 914.828C829.573 918.538 822.673 918.818 818.033 915.488C820.603 914.038 824.323 915.468 825.253 918.268C820.483 921.238 812.903 917.668 812.833 912.048C812.753 906.428 821.393 902.998 824.743 907.508C823.183 904.798 821.563 901.668 822.493 898.688C823.423 895.708 828.403 894.438 829.533 897.348C826.213 899.018 821.673 895.578 822.373 891.928C828.343 890.778 834.713 891.788 840.033 894.748C836.763 896.758 832.163 896.258 829.403 893.598C831.793 891.008 836.813 892.968 837.463 896.438C838.113 899.908 835.093 903.328 831.623 903.928C829.803 904.248 827.913 904.128 826.143 903.578C827.963 906.158 827.513 910.078 825.163 912.178C822.813 914.278 821.103 909.648 818.743 907.558H818.753Z" stroke="black" stroke-miterlimit="10"/>
<path d="M627.883 939.618C630.303 940.108 632.963 939.668 635.003 938.418C635.663 932.788 638.883 892.728 630.173 893.268C626.613 893.488 626.623 939.368 627.883 939.618Z" stroke="black" stroke-miterlimit="10"/>
<path d="M614.683 891.798C618.523 887.568 622.443 885.368 627.203 882.698C634.973 881.638 637.293 886.148 638.763 889.028C636.623 892.568 633.473 894.098 630.313 895.628C626.493 895.608 622.913 895.298 614.713 894.578C604.973 890.738 604.833 883.528 608.163 884.508C609.803 888.468 607.973 891.098 604.083 884.788C608.603 875.768 616.533 873.988 618.093 873.648C619.793 873.558 621.263 874.128 625.223 875.688C624.333 881.798 620.173 882.898 616.013 883.998C611.513 880.258 611.903 876.468 612.283 872.678C616.633 869.768 620.973 869.768 625.323 869.758C629.353 872.198 631.673 875.408 628.613 875.748C625.173 875.528 622.953 873.648 620.743 871.758C620.933 867.798 623.843 866.898 625.983 866.238C628.393 867.568 629.403 869.348 630.403 871.138C630.343 873.228 630.173 875.208 626.633 875.088C625.573 870.168 628.283 868.168 631.003 866.178C635.273 866.858 638.123 868.708 639.773 869.778C641.193 871.308 641.373 873.088 641.563 874.878C640.113 876.838 638.073 876.948 636.023 877.048C634.313 874.618 635.683 873.278 638.983 874.628C641.273 878.208 639.813 881.138 638.363 884.058C632.603 884.538 631.253 881.568 635.283 879.938C640.693 882.628 641.163 886.498 641.633 890.358C636.983 893.988 632.653 893.138 633.613 891.728C636.063 891.328 637.533 892.338 639.003 893.358C639.143 895.538 637.803 896.688 635.093 899.008C630.673 895.948 629.293 892.858 628.023 890.008C627.533 886.748 628.793 883.898 630.063 881.048C633.393 878.788 636.873 879.118 640.343 879.448C643.173 882.928 641.783 885.738 640.093 889.138C634.443 889.138 630.613 887.558 626.003 885.648C622.053 881.928 621.603 877.478 621.153 873.028C625.263 868.268 630.363 868.468 634.503 868.628C637.853 871.848 638.903 875.358 639.953 878.868C639.173 882.588 638.123 886.098 638.123 886.098C633.533 883.128 633.353 876.258 637.773 873.098C643.323 869.138 651.383 872.458 652.973 878.068C654.563 883.678 648.603 891.288 643.813 894.818C635.513 900.938 619.683 900.848 614.683 891.778V891.798Z" stroke="black" stroke-miterlimit="10"/>
<path d="M901.393 937.658C903.813 938.078 906.473 937.698 908.513 936.638C909.173 931.828 912.393 897.588 903.683 898.048C900.123 898.238 900.133 937.448 901.393 937.668V937.658Z" stroke="black" stroke-miterlimit="10"/>
<path d="M888.193 896.788C892.033 893.168 895.954 891.288 900.714 889.008C908.484 888.098 910.803 891.958 912.273 894.418C910.133 897.438 906.983 898.748 903.823 900.058C900.003 900.038 896.424 899.778 888.224 899.168C878.484 895.888 878.343 889.718 881.673 890.568C883.313 893.948 881.484 896.208 877.594 890.808C882.114 883.098 890.044 881.578 891.604 881.288C893.304 881.208 894.774 881.698 898.734 883.028C897.844 888.248 893.683 889.188 889.523 890.128C885.023 886.928 885.413 883.688 885.793 880.448C890.143 877.958 894.483 877.958 898.833 877.958C902.863 880.038 905.184 882.788 902.124 883.078C898.684 882.888 896.464 881.278 894.254 879.668C894.444 876.288 897.354 875.518 899.494 874.948C901.904 876.088 902.913 877.608 903.913 879.128C903.853 880.908 903.683 882.608 900.143 882.508C899.083 878.308 901.794 876.598 904.514 874.888C908.784 875.468 911.633 877.048 913.283 877.958C914.703 879.258 914.883 880.788 915.073 882.318C913.623 883.998 911.583 884.088 909.533 884.178C907.823 882.098 909.194 880.958 912.494 882.118C914.784 885.178 913.324 887.678 911.874 890.178C906.114 890.588 904.763 888.048 908.793 886.658C914.203 888.958 914.673 892.268 915.143 895.568C910.493 898.668 906.164 897.938 907.124 896.738C909.574 896.398 911.044 897.258 912.514 898.128C912.654 899.988 911.314 900.968 908.604 902.958C904.184 900.348 902.803 897.708 901.533 895.268C901.043 892.488 902.303 890.048 903.573 887.608C906.903 885.678 910.384 885.958 913.854 886.238C916.684 889.218 915.294 891.618 913.604 894.518C907.954 894.518 904.124 893.168 899.514 891.538C895.564 888.358 895.113 884.558 894.663 880.748C898.773 876.678 903.874 876.848 908.014 876.988C911.364 879.738 912.414 882.738 913.464 885.738C912.684 888.918 911.634 891.918 911.634 891.918C907.044 889.378 906.863 883.508 911.283 880.808C916.833 877.428 924.894 880.258 926.484 885.058C928.074 889.858 922.113 896.358 917.323 899.368C909.023 904.598 893.193 904.518 888.193 896.778V896.788Z" stroke="black" stroke-miterlimit="10"/>
<path d="M737.753 899.548C736.633 898.838 735.503 898.138 734.383 897.428C733.153 899.008 733.083 900.878 734.193 902.488C740.033 902.538 745.713 900.228 747.693 897.008C749.673 893.788 747.823 889.888 743.283 887.728C739.033 889.978 737.193 893.678 738.703 896.918C743.833 883.158 740.923 868.418 730.553 855.718C712.713 862.298 705.443 877.148 714.603 888.278C719.913 883.548 718.823 876.688 712.103 872.618C706.303 881.918 709.473 892.958 720.143 900.638C724.993 897.968 725.373 892.988 720.953 890.068C720.033 895.338 719.123 900.698 720.863 905.898C722.603 911.098 727.403 916.208 735.353 918.708C743.083 911.658 742.573 901.828 734.123 895.068C732.663 893.898 730.823 892.758 728.393 892.488C725.963 892.218 723.043 893.238 723.173 894.678C723.553 898.818 725.403 902.908 728.563 906.608C732.363 906.658 736.013 904.918 736.693 902.728C737.373 900.538 735.003 898.148 731.413 897.418C729.433 898.858 728.493 900.768 728.853 902.608C738.103 899.598 741.183 891.558 735.023 886.518C732.033 887.768 731.763 890.708 734.523 892.138C739.773 891.518 742.313 887.598 740.653 884.618C738.993 881.628 734.453 879.528 729.803 877.968C724.033 880.508 721.343 885.228 723.363 889.288C736.243 882.958 741.143 871.628 734.973 862.458C732.133 865.948 732.873 870.348 736.823 873.438C737.813 870.448 738.773 867.238 736.673 864.448C734.573 861.668 728.043 859.858 723.993 861.758C722.433 862.488 721.553 863.598 720.913 864.708C718.183 869.408 719.053 874.788 723.243 879.108C723.703 874.908 721.603 870.628 717.413 867.218C713.983 876.728 717.283 887.008 726.373 895.128C729.693 891.148 729.643 886.268 726.233 882.308C724.923 880.778 722.663 879.248 719.753 879.298C715.443 879.368 713.653 882.578 713.613 885.108C713.473 894.218 723.753 900.578 724.633 909.208C725.693 919.558 726.793 929.898 727.873 940.248C730.763 940.538 733.783 940.348 736.503 939.708C738.463 928.168 738.213 916.498 735.783 904.988C735.473 903.528 733.673 901.568 723.953 902.738L724.083 903.968" stroke="black" stroke-miterlimit="10"/>
</svg>
