<svg width="839" height="837" viewBox="0 0 839 837" fill="none" xmlns="http://www.w3.org/2000/svg">
<path d="M312.283 208.748C326.963 209.048 321.553 208.978 336.203 209.418C339.013 209.498 353.123 209.328 355.933 209.378C356.673 209.388 363.863 209.598 366.293 208.388C367.343 207.858 367.793 204.608 367.813 203.428C367.913 197.588 367.993 195.428 368.023 189.588C368.163 163.428 371.423 137.388 369.803 111.278C369.703 109.658 369.593 108.018 369.053 106.498C368.513 104.978 367.443 103.558 365.933 102.958C364.973 102.578 363.913 102.558 362.883 102.538C320.053 101.838 277.213 101.638 234.403 103.008C233.263 102.688 231.613 103.608 231.043 104.648C230.473 105.688 230.413 106.918 230.363 108.098C229.883 118.798 229.403 129.498 228.933 140.198C228.733 144.758 228.523 149.318 228.513 153.878C228.483 164.568 229.513 175.278 228.563 185.928C228.033 191.888 229.583 197.968 229.213 203.938C229.163 204.808 229.103 205.758 229.603 206.478C230.303 207.498 231.513 208.448 232.753 208.468C259.513 208.928 285.513 208.158 312.273 208.718L312.283 208.748Z" stroke="black" stroke-miterlimit="10"/>
<path d="M321.633 236.708C336.393 236.958 351.163 236.568 365.883 235.518C366.523 235.468 367.263 235.378 367.623 234.838C367.843 234.498 367.863 234.078 367.863 233.668C367.943 227.848 367.663 222.018 367.043 216.228C366.953 215.388 366.813 214.468 366.203 213.888C365.503 213.228 364.433 213.208 363.473 213.238C361.643 213.288 360.323 213.328 358.493 213.318C338.793 213.238 319.103 213.148 299.403 213.068C277.453 212.978 255.493 212.878 233.553 212.308C232.533 212.278 232.013 212.058 230.993 212.058C230.543 212.058 230.033 212.078 229.713 212.398C229.323 212.788 229.383 213.418 229.473 213.968C230.273 219.188 230.443 224.498 229.983 229.748C229.743 232.378 229.353 235.058 229.863 237.658C229.893 237.818 229.973 238.008 230.133 238.018C260.533 238.348 291.263 237.508 321.653 236.708H321.633Z" stroke="black" stroke-miterlimit="10"/>
<path d="M283.813 367.168C268.083 366.378 252.313 366.368 236.573 367.128C235.213 367.198 233.813 367.258 232.543 366.798C231.273 366.338 230.133 365.198 230.113 363.838C229.703 329.538 229.293 295.238 228.893 260.948C228.833 255.738 228.773 250.518 229.133 245.318C229.233 243.828 230.343 242.068 231.833 242.038C259.283 241.558 286.733 241.088 314.183 240.608C317.433 240.548 320.693 240.498 323.943 240.548C330.773 240.658 337.593 241.228 344.423 241.028C350.703 240.838 356.963 239.988 363.243 240.198C364.493 240.238 365.573 241.178 366.143 242.298C366.713 243.418 366.853 244.688 366.973 245.938C369.183 268.788 365.983 291.768 364.843 314.698C364.063 330.548 365.713 346.668 365.703 362.538C365.703 364.018 366.143 365.808 364.823 366.478C364.513 366.638 364.243 366.998 362.283 367.008C360.323 367.018 310.593 368.528 283.813 367.188V367.168Z" stroke="black" stroke-miterlimit="10"/>
<path d="M437.643 257.498C438.183 252.468 437.613 247.308 435.983 242.518C435.653 241.548 435.233 240.528 434.403 239.928C433.503 239.278 432.313 239.238 431.203 239.228C412.743 239.048 394.273 239.328 375.823 240.048C373.777 240.334 372.457 240.908 371.863 241.768C370.983 243.048 370.923 244.708 370.893 246.268C370.333 274.688 369.773 303.108 369.213 331.528C369.003 342.018 368.803 352.548 369.953 362.988C370.193 365.128 372.133 366.758 374.203 367.338C376.273 367.918 378.473 367.688 380.623 367.508C399.473 365.988 418.603 369.628 437.283 366.668C437.673 366.608 438.083 366.528 438.363 366.248C438.653 365.958 438.733 365.518 438.793 365.118C441.383 346.728 437.623 328.108 437.083 309.538C436.923 303.838 437.063 298.128 437.203 292.428C437.493 280.908 436.403 268.948 437.633 257.498H437.643Z" stroke="black" stroke-miterlimit="10"/>
<path d="M518.633 240.758C495.163 240.598 471.703 240.448 448.233 240.288C446.633 240.278 444.783 240.378 443.813 241.658C443.213 242.448 443.113 243.498 443.043 244.488C440.843 274.478 441.733 304.598 442.623 334.658C442.743 338.598 443.303 343.298 446.823 345.088C448.183 345.778 449.763 345.878 451.283 345.958C481.503 347.598 538.953 349.858 542.043 348.438C545.983 346.628 542.823 339.558 545.123 335.878C547.813 331.578 553.693 330.898 558.753 330.668C562.193 330.508 565.223 333.188 566.763 336.278C568.303 339.368 568.743 342.858 569.583 346.198C569.693 346.628 569.823 347.078 570.173 347.348C570.483 347.588 570.903 347.628 571.293 347.658C574.633 347.888 578.003 347.818 581.323 347.438C582.013 347.358 582.783 347.218 583.173 346.658C583.633 345.998 583.363 345.098 583.043 344.358C580.383 338.198 575.263 333.518 570.883 328.428C559.253 314.898 552.553 297.968 544.673 281.958C537.603 267.598 529.453 253.758 518.623 240.748L518.633 240.758Z" stroke="black" stroke-miterlimit="10"/>
<path d="M565.433 347.498C566.763 345.938 564.923 343.468 564.773 341.428C564.623 339.388 563.753 337.088 561.803 336.478C561.113 336.268 560.383 336.298 559.663 336.328C556.983 336.448 554.313 336.558 551.633 336.678C549.493 336.768 547.823 338.758 547.363 340.848C546.903 342.938 547.373 345.108 547.843 347.198C547.973 347.778 548.133 348.398 548.583 348.778C548.963 349.088 549.463 349.178 549.953 349.238C554.593 349.838 564.563 348.518 565.423 347.508L565.433 347.498Z" stroke="black" stroke-miterlimit="10"/>
<path d="M567.213 414.708C561.743 410.908 566.753 400.008 567.773 392.238C569.183 381.518 569.233 370.618 567.923 359.878C567.573 357.048 566.683 354.818 567.523 353.448C570.193 349.098 578.783 351.678 583.873 351.128C584.923 351.018 586.073 350.928 586.943 351.528C587.393 351.838 587.703 352.298 588.013 352.748C593.813 361.308 599.603 369.868 605.403 378.428C609.883 385.048 614.463 391.888 616.143 399.718C616.393 400.898 616.543 402.238 615.833 403.218C611.203 409.528 603.783 413.718 595.983 414.398C592.243 414.728 588.493 414.288 584.743 414.148C578.883 413.918 569.473 416.258 567.233 414.708H567.213Z" stroke="black" stroke-miterlimit="10"/>
<path d="M557.473 416.008C558.283 415.968 559.153 415.898 559.773 415.388C560.443 414.838 560.643 413.918 560.793 413.068C561.713 407.868 562.013 402.548 561.683 397.278C561.573 395.608 559.383 395.108 557.703 395.068C552.173 394.948 546.643 394.838 541.123 394.718C539.413 394.678 537.103 394.038 537.243 392.338C537.413 390.168 537.613 387.988 537.853 385.828C538.093 383.668 538.443 381.478 540.063 380.168C541.413 379.088 543.273 378.978 545.003 378.928C550.133 378.788 555.263 378.748 560.403 378.808C560.603 378.808 560.803 378.808 560.993 378.748C561.703 378.518 561.863 377.608 561.903 376.858C562.293 369.018 564.703 355.198 563.073 353.338C561.343 351.348 544.753 353.128 535.503 353.538C506.593 354.818 479.523 352.538 450.883 348.438C448.823 348.148 446.403 347.958 444.993 349.488C443.793 350.788 443.863 352.788 444.013 354.558C444.423 359.368 444.833 364.168 445.243 368.978C445.433 371.198 442.173 371.148 439.943 371.208C401.733 372.248 363.503 372.698 325.283 372.538C324.233 372.538 323.003 372.908 322.473 373.808C321.943 374.708 321.903 375.808 321.873 376.858C321.603 388.228 321.343 399.608 321.073 410.978C321.043 412.368 321.093 413.948 322.143 414.858C322.993 415.588 324.213 415.628 325.333 415.628C355.353 415.628 374.403 414.118 404.393 415.548C419.443 416.268 525.393 417.618 557.493 416.008H557.473Z" stroke="black" stroke-miterlimit="10"/>
<path d="M317.553 375.138C318.393 377.908 315.963 399.588 315.333 413.238C315.323 413.478 315.313 413.718 315.243 413.948C314.883 415.228 313.213 415.498 311.883 415.518C301.293 415.688 290.703 415.498 280.133 414.958C279.443 414.918 278.723 414.968 278.513 414.618C278.153 414.028 280.453 403.168 279.983 391.378C279.513 379.688 277.683 375.918 278.983 372.928C280.083 370.388 282.663 369.858 284.893 369.878C286.913 369.968 295.293 370.318 303.673 370.678C308.253 370.878 316.113 370.358 317.553 375.128V375.138Z" stroke="black" stroke-miterlimit="10"/>
<path d="M217.223 242.728C219.273 242.678 221.333 241.188 223.063 242.278C225.463 243.788 225.283 247.278 224.903 250.088C224.073 256.378 223.753 262.728 223.953 269.068C224.813 296.488 225.683 323.928 225.003 351.358C224.903 355.608 224.753 359.918 223.553 363.998C223.193 365.218 222.683 366.498 221.633 367.208C220.743 367.808 219.613 367.908 218.533 367.978C191.663 369.778 164.623 369.158 137.853 366.148C135.663 366.168 133.793 366.628 131.603 366.648C131.023 366.648 130.363 366.628 129.973 366.198C129.653 365.848 129.613 365.318 129.603 364.848C129.213 354.668 128.813 344.488 128.423 334.308C128.373 332.898 128.313 331.468 128.613 330.088C128.763 329.388 129.003 328.708 129.233 328.028C133.413 315.708 134.773 302.548 134.463 289.538C134.423 287.848 134.353 286.158 134.123 284.488C133.903 282.918 133.553 281.378 133.223 279.828C130.993 269.118 130.463 258.058 131.653 247.178C131.823 245.608 132.113 243.888 133.333 242.888C134.333 242.068 135.713 241.948 137.003 241.858C160.683 240.238 175.273 243.078 199.003 243.308C201.983 243.338 214.243 242.798 217.223 242.728Z" stroke="black" stroke-miterlimit="10"/>
<path d="M128.553 241.348C129.033 244.058 127.673 265.078 127.003 276.928C126.963 277.628 126.913 278.358 126.543 278.948C125.923 279.958 124.623 280.248 123.573 280.798C119.723 282.788 119.223 287.998 119.223 292.328C119.223 300.808 119.243 309.288 119.253 317.768C119.253 319.528 119.253 321.318 119.773 322.998C123.793 336.158 125.023 350.168 123.343 363.828C123.243 364.608 123.013 365.548 122.253 365.758C121.953 365.838 121.633 365.778 121.323 365.718C118.913 365.218 116.493 364.728 114.083 364.228C111.523 363.698 109.653 361.338 108.953 358.818C108.253 356.298 110.153 353.208 108.713 351.018C107.663 349.428 104.943 351.888 104.273 353.678C103.603 355.468 103.893 357.448 104.193 359.328C104.523 361.448 105.093 363.908 107.053 364.798C110.443 366.348 113.843 367.888 117.233 369.438C119.163 370.318 121.213 371.298 122.333 373.098C123.363 374.748 123.433 376.808 123.483 378.758C123.733 390.518 123.983 402.268 124.233 414.028C124.253 415.188 122.713 415.608 121.553 415.648C101.003 416.348 67.8733 419.078 62.4433 415.238C59.7233 413.318 61.5133 408.878 63.0733 405.938C69.5533 393.738 70.9333 379.578 74.0733 366.118C76.4333 356.018 79.8334 346.198 83.2934 336.418C93.5434 307.458 104.373 278.718 115.203 249.968C116.333 246.978 116.753 243.198 119.373 241.358C121.993 239.518 128.043 238.318 128.563 241.328L128.553 241.348Z" stroke="black" stroke-miterlimit="10"/>
<path d="M127.673 282.018C118.803 282.918 122.373 299.308 122.873 308.198C123.143 313.138 119.573 322.568 124.523 322.818C127.393 322.958 128.253 319.698 128.553 318.558C130.993 309.178 130.753 301.428 131.553 291.768C131.773 289.158 133.683 281.408 127.683 282.018H127.673Z" stroke="black" stroke-miterlimit="10"/>
<path d="M511.513 229.208C512.913 230.798 512.903 234.118 510.793 234.248C504.293 234.628 497.793 234.928 491.283 235.148C458.733 236.248 426.143 235.288 393.583 234.338C386.713 234.138 373.333 237.568 372.903 230.708C372.253 220.348 374.053 170.768 374.523 140.018C374.693 128.878 374.863 117.708 373.813 106.618C373.533 103.628 372.793 100.128 370.043 98.9278C369.103 98.5178 368.053 98.4478 367.033 98.3978C353.103 97.6178 339.133 97.3878 325.183 97.7078C322.573 97.7678 319.873 97.8378 317.443 96.8678C315.013 95.8978 312.903 93.6278 313.003 91.0078C313.113 87.9978 313.623 84.3778 316.373 83.1578C317.543 82.6378 318.883 82.6978 320.173 82.7678C339.813 83.8078 359.533 83.3178 379.103 81.3078C381.533 81.0578 383.743 83.9078 385.383 85.7278C393.433 94.6978 400.963 104.278 410.483 111.668C415.793 115.788 421.673 119.178 426.663 123.678C428.933 125.728 430.993 127.988 433.003 130.288C439.383 137.588 445.233 145.358 450.503 153.498C453.213 157.678 455.773 161.968 458.813 165.908C465.703 174.818 474.863 181.678 482.693 189.778C492.663 200.088 510.103 227.618 511.503 229.208H511.513Z" stroke="black" stroke-miterlimit="10"/>
<path d="M308.373 82.7777C305.063 82.9377 299.073 82.7177 294.423 82.6877C293.873 82.6877 293.313 82.6877 292.783 82.8477C291.343 83.3077 290.583 84.8477 290.083 86.2777C289.143 88.9577 288.543 91.7677 288.323 94.6077C288.153 96.7777 291.023 97.6577 293.183 97.7977C296.653 98.0177 300.123 98.2477 303.593 98.4677C305.713 98.6077 308.203 98.5777 309.483 96.8877C310.213 95.9177 310.333 94.6277 310.383 93.4077C310.503 90.3877 310.233 82.6877 308.373 82.7777Z" stroke="black" stroke-miterlimit="10"/>
<path d="M284.633 82.4678C288.223 83.6678 285.573 90.2578 284.823 93.9678C284.613 94.9978 284.313 96.1277 283.433 96.6777C280.213 98.7077 276.153 98.7078 272.343 98.6478L238.473 98.0578C235.863 98.0078 233.163 97.9878 230.773 99.0178C227.423 100.468 225.213 103.828 224.243 107.348C223.273 110.868 223.383 114.578 223.483 118.218C223.623 122.998 223.773 127.778 223.913 132.558C221.023 132.328 217.213 134.038 215.753 131.518C215.233 130.618 215.333 129.508 215.443 128.478C216.003 123.278 216.573 118.078 217.133 112.878C217.443 109.988 217.613 106.658 215.533 104.638C213.763 102.918 211.013 102.818 208.543 102.818C206.693 102.818 204.803 102.838 203.073 103.488C201.343 104.138 199.793 105.598 199.573 107.428C198.213 118.358 197.173 129.328 196.463 140.328C196.203 144.268 196.003 148.328 197.333 152.048C197.773 153.268 199.003 154.658 200.113 153.978C200.443 153.778 200.653 153.428 200.833 153.098C202.083 150.798 202.743 148.178 202.723 145.558C202.713 143.728 202.373 141.888 202.683 140.088C202.993 138.288 204.173 136.448 205.973 136.148C209.053 135.618 210.923 139.618 210.743 142.748C210.563 145.878 209.533 149.298 211.233 151.928C212.133 153.318 214.293 151.768 214.753 150.178C215.583 147.258 214.803 144.088 215.503 141.138C216.203 138.188 219.773 135.488 222.133 137.388C223.473 138.468 223.633 140.418 223.663 142.138C224.003 160.998 223.883 179.528 223.133 198.368C222.703 209.278 220.853 220.528 221.883 231.398C222.053 233.218 222.143 235.328 220.783 236.538C220.023 237.208 218.983 237.428 217.983 237.598C212.043 238.558 205.983 238.198 199.973 237.878C173.793 236.478 122.933 237.858 121.343 236.048C119.453 233.898 125.613 223.298 128.533 217.148C130.773 212.428 132.253 207.398 133.833 202.418C146.243 163.208 164.923 126.258 178.303 87.3678C178.733 86.1078 179.193 84.7978 180.113 83.8378C181.843 82.0378 184.653 81.9578 187.153 82.0078C220.213 82.5978 280.313 81.0378 284.613 82.4778L284.633 82.4678Z" stroke="black" stroke-miterlimit="10"/>
<path d="M376.153 76.7078C377.573 79.2478 370.903 78.6078 367.993 78.7378C318.973 80.8378 269.803 74.8878 220.853 78.2978C220.373 78.3278 219.693 78.1978 219.713 77.7078C219.943 72.8978 220.173 68.0778 220.403 63.2678C220.683 57.4078 220.903 51.2478 218.323 45.9778C216.563 42.3878 213.533 39.2678 213.103 35.2878C212.973 34.0478 212.833 32.8078 212.703 31.5678C212.623 30.8578 212.483 30.0378 211.863 29.6778C211.363 29.3978 210.733 29.5178 210.223 29.7778C207.683 31.0578 207.503 34.7578 208.743 37.3178C209.983 39.8778 212.183 41.8678 213.473 44.3978C214.943 47.2878 215.113 50.6478 215.223 53.8878C215.413 59.6678 215.503 65.4478 215.493 71.2378C215.493 73.3978 215.353 75.8378 213.723 77.2678C212.253 78.5478 210.103 78.5378 208.153 78.4578C200.613 78.1478 184.303 78.3478 184.103 77.8978C182.533 74.3678 185.983 62.3878 190.003 55.5778C192.193 51.8678 194.453 48.2078 196.733 44.5478C203.743 33.3178 211.083 21.9478 221.463 13.7278C241.843 -2.41221 272.513 -2.62221 295.893 6.85779C297.843 7.64779 299.783 8.52779 301.473 9.78779C303.123 11.0278 304.493 12.5978 305.873 14.1378C312.823 21.8978 320.363 29.1378 328.553 35.5678C344.863 48.3778 370.853 67.2078 376.173 76.6978L376.153 76.7078Z" stroke="black" stroke-miterlimit="10"/>
<path d="M129.943 414.528C166.873 412.948 203.873 412.798 240.813 414.088C251.093 414.448 261.423 414.908 271.653 413.748C273.763 413.508 274.343 410.748 274.383 408.628C274.593 397.188 274.753 388.298 274.963 376.858C274.983 375.538 273.043 371.438 268.023 370.818C260.483 369.888 240.663 371.078 238.583 370.828C236.503 370.578 214.103 374.038 189.533 371.358C186.173 370.988 183.233 371.258 180.423 373.158C178.553 374.418 178.413 376.948 180.253 378.258C182.093 379.568 184.523 379.568 186.773 379.518C193.103 379.378 199.423 379.228 205.753 379.088C207.483 379.048 209.723 379.388 210.063 381.088C210.493 383.218 207.503 384.188 205.323 384.228C184.093 384.598 162.873 384.958 141.643 385.328C140.573 385.348 139.463 385.358 138.503 384.888C137.543 384.418 136.803 383.328 137.093 382.308C137.533 380.788 139.603 380.648 141.183 380.788C149.513 381.528 157.913 381.538 166.243 380.808C168.793 380.588 171.533 380.208 173.393 378.448C175.253 376.688 175.423 374.058 174.283 373.178C171.243 370.838 163.353 371.508 157.453 371.438C149.463 371.348 141.483 371.258 133.493 371.168C132.233 371.158 130.853 371.178 129.893 371.998C128.913 372.838 128.683 374.228 128.533 375.508C127.023 388.488 127.483 401.698 129.913 414.548L129.943 414.528Z" stroke="black" stroke-miterlimit="10"/>
<path d="M594.203 618.618C593.703 621.748 590.843 620.878 575.913 620.908C560.983 620.938 547.463 624.368 547.043 616.468C546.623 608.568 547.193 597.438 548.333 574.948C549.473 552.458 546.223 493.388 548.253 473.358C550.283 453.328 545.473 436.418 551.993 431.038C557.063 426.848 579.193 425.418 587.853 434.818C591.433 438.698 592.863 444.058 593.813 449.258C595.873 460.418 596.303 471.808 596.563 483.148C597.603 528.478 595.663 609.308 594.183 618.628L594.203 618.618Z" stroke="black" stroke-miterlimit="10"/>
<path d="M538.533 429.038C539.253 429.018 540.083 429.068 540.503 429.648C540.773 430.028 540.773 430.518 540.773 430.978C540.543 459.328 540.313 487.688 540.083 516.038C540.083 516.908 540.033 517.878 539.413 518.508C538.813 519.108 537.883 519.188 537.033 519.228C530.073 519.528 523.103 519.828 516.143 520.138C513.023 520.278 509.863 520.408 506.783 519.828C506.413 519.758 505.983 519.628 505.843 519.278C504.843 516.738 504.773 513.958 504.713 511.228C504.503 502.128 504.303 493.028 504.093 483.918C504.033 481.438 503.983 478.948 504.133 476.468C504.983 462.588 505.213 448.668 504.813 434.778C504.593 427.338 510.673 429.128 515.463 429.488C523.023 430.058 530.953 429.208 538.533 429.038Z" stroke="black" stroke-miterlimit="10"/>
<path d="M535.153 526.708C536.003 526.678 537.013 526.728 537.483 527.438C537.733 527.818 537.763 528.298 537.793 528.748C538.963 552.638 538.973 576.578 537.813 600.468C537.493 607.068 537.083 613.718 537.853 620.278C537.933 620.988 537.783 622.008 537.063 621.988C526.283 621.738 515.503 621.498 504.723 621.248C504.403 621.248 504.073 621.228 503.803 621.078C503.213 620.748 503.133 619.938 503.123 619.258C502.863 588.958 503.523 558.658 505.123 528.408C505.143 527.958 505.183 527.488 505.433 527.118C505.843 526.508 506.683 526.388 507.423 526.348C516.643 525.748 525.903 527.038 535.173 526.728L535.153 526.708Z" stroke="black" stroke-miterlimit="10"/>
<path d="M494.653 429.098C494.823 429.098 494.993 429.088 495.163 429.128C495.823 429.278 496.113 430.038 496.283 430.688C497.693 436.248 497.463 442.068 497.253 447.798C496.863 458.448 496.573 469.108 496.393 479.768C496.323 484.048 496.263 488.338 496.703 492.598C496.893 494.428 497.163 496.238 497.403 498.058C498.293 504.968 498.583 511.958 498.273 518.928C498.263 519.258 498.233 519.608 498.023 519.868C497.733 520.228 497.193 520.258 496.723 520.258C486.463 520.258 476.213 520.258 465.953 520.258C464.723 520.258 463.403 520.228 462.433 519.478C461.203 518.538 460.993 516.808 460.923 515.278C460.483 505.228 461.973 495.188 462.243 485.138C462.423 478.468 462.063 471.808 461.883 465.138C461.573 453.778 461.783 442.408 462.493 431.058C462.583 429.568 464.553 429.118 466.063 429.088C475.623 428.908 485.073 429.428 494.653 429.118V429.098Z" stroke="black" stroke-miterlimit="10"/>
<path d="M494.803 527.328C495.713 527.308 496.773 527.368 497.303 528.098C497.593 528.498 497.653 529.018 497.683 529.508C498.173 535.948 496.753 542.358 496.253 548.798C495.953 552.688 495.983 556.588 496.013 560.488C496.173 579.998 496.323 599.508 496.483 619.018C496.483 619.648 496.433 620.388 495.913 620.728C495.623 620.918 495.243 620.928 494.893 620.938C483.813 621.128 472.733 621.318 461.663 621.508C460.033 621.538 459.543 619.318 459.603 617.688C460.033 606.908 461.333 596.128 460.563 585.368C460.283 581.408 459.713 577.448 459.883 573.478C460.523 558.608 461.373 543.748 462.423 528.898C462.463 528.318 462.543 527.668 463.013 527.328C463.353 527.078 463.803 527.068 464.223 527.058C474.463 526.978 484.573 527.328 494.813 527.328H494.803Z" stroke="black" stroke-miterlimit="10"/>
<path d="M449.653 429.838C450.893 429.838 452.223 429.858 453.233 430.568C454.803 431.678 454.943 433.928 454.923 435.848C454.643 463.518 454.183 491.198 453.523 518.868C453.523 519.188 453.503 519.518 453.363 519.808C452.983 520.578 451.933 520.648 451.083 520.608C441.473 520.188 433.153 521.568 423.543 521.158C423.083 521.138 420.183 521.018 420.183 518.468C420.213 489.298 419.183 439.098 419.573 431.698C419.793 427.508 439.873 429.878 449.653 429.838Z" stroke="black" stroke-miterlimit="10"/>
<path d="M406.963 429.398C408.433 429.508 410.133 429.798 410.863 431.088C411.213 431.708 411.263 432.438 411.303 433.148C413.003 461.678 414.693 490.338 412.203 518.818C412.123 519.768 411.263 520.508 410.343 520.768C409.423 521.028 408.443 520.908 407.493 520.808C399.663 519.938 391.723 519.968 383.903 520.918C382.083 521.138 380.273 521.408 378.433 521.458C377.373 521.488 376.433 520.658 376.003 519.688C375.573 518.718 375.543 517.618 375.523 516.548C375.363 507.858 375.203 499.168 375.033 490.488C374.973 487.098 374.903 483.718 375.033 480.328C375.663 463.378 374.303 438.178 376.303 432.578C377.983 427.878 386.243 429.288 391.103 429.538C396.363 429.808 401.643 429.008 406.953 429.418L406.963 429.398Z" stroke="black" stroke-miterlimit="10"/>
<path d="M452.433 620.658C451.903 621.298 451.013 620.878 441.153 621.218L421.173 621.928C420.893 621.928 420.623 621.868 419.373 621.558C419.093 619.928 419.063 618.628 418.823 607.198C418.583 595.758 418.333 584.328 418.083 572.378C418.673 560.428 419.273 548.498 419.613 541.598C419.953 534.698 417.223 529.368 420.303 527.788C426.283 524.718 442.543 525.758 453.283 527.018C453.693 527.068 454.143 527.138 454.433 527.438C454.783 527.818 454.753 528.388 454.693 528.898C453.313 542.098 452.883 555.398 453.413 568.668C453.603 573.478 453.923 578.278 454.003 583.088C454.133 590.328 453.723 597.558 453.323 604.788C453.043 609.868 454.983 617.598 452.433 620.648V620.658Z" stroke="black" stroke-miterlimit="10"/>
<path d="M412.233 621.928C409.363 622.088 406.113 622.248 395.993 621.728C385.883 620.988 376.783 623.008 375.713 621.098C375.523 620.768 375.363 617.388 375.303 615.478C375.233 613.568 375.943 591.028 374.973 562.868C376.493 534.768 374.973 532.678 376.023 527.868C376.693 524.768 384.863 526.698 389.303 527.428C395.043 528.378 401.193 527.368 406.973 527.038C408.293 526.968 409.783 526.958 410.703 527.898C411.143 528.348 411.383 528.958 411.573 529.568C412.833 533.528 412.683 537.778 412.543 541.928C411.813 563.608 411.843 585.318 412.633 606.998C412.793 611.318 412.753 613.088 412.373 617.258C412.173 619.468 412.813 621.888 412.253 621.918L412.233 621.928Z" stroke="black" stroke-miterlimit="10"/>
<path d="M367.953 604.438C358.393 604.638 348.833 604.828 339.273 605.028C337.423 605.068 336.473 602.728 336.603 600.878C336.733 599.028 337.373 597.078 336.603 595.388C335.303 592.548 331.333 592.688 328.213 592.578C327.993 592.578 327.763 592.558 327.553 592.478C326.783 592.188 326.613 591.188 326.573 590.358C325.573 569.848 327.623 549.308 327.693 528.768C327.743 511.408 326.383 494.088 326.073 476.728C325.803 461.278 326.373 445.818 327.793 430.428L328.013 428.018C339.343 425.838 351.563 428.508 362.983 428.878C364.533 428.928 366.193 429.018 367.413 429.968C369.253 431.398 369.343 434.098 369.263 436.428C368.443 461.688 367.943 486.948 367.743 512.218C367.503 542.958 367.723 573.698 367.943 604.438H367.953Z" stroke="black" stroke-miterlimit="10"/>
<path d="M368.593 620.838C355.123 621.948 341.553 621.928 328.083 620.758C327.883 620.738 327.683 620.718 327.493 620.668C326.183 620.288 325.973 618.548 326.023 617.188C326.213 611.698 326.413 606.218 326.603 600.728C326.673 598.768 327.043 596.368 328.883 595.698C330.943 594.948 332.973 597.188 333.333 599.348C333.693 601.508 333.123 603.768 333.593 605.908C334.063 608.048 336.383 610.098 336.383 610.098C345.873 609.478 355.423 609.678 364.933 609.618C365.743 609.618 366.663 609.648 367.213 610.248C367.523 610.578 367.653 611.038 367.773 611.468C368.633 614.498 368.913 617.698 368.593 620.838Z" stroke="black" stroke-miterlimit="10"/>
<path d="M193.943 523.708C194.063 519.678 194.193 515.658 194.313 511.628C194.333 510.848 194.393 509.988 194.943 509.448C195.313 509.078 195.843 508.928 196.343 508.798C199.523 507.998 202.813 507.668 206.083 507.808C207.173 507.858 208.353 507.928 209.253 507.308C210.153 506.688 210.323 505.038 209.313 504.638C209.123 504.558 208.913 504.538 208.713 504.518C205.193 504.148 201.673 503.788 198.143 503.418C197.053 503.308 195.863 503.148 195.123 502.348C194.443 501.618 194.313 500.538 194.233 499.548C192.353 476.838 196.933 453.968 195.053 431.258C194.993 430.508 194.963 429.648 195.513 429.138C196.023 428.668 196.793 428.708 197.483 428.778C211.563 430.128 225.573 429.948 239.723 429.668C248.923 429.488 262.533 427.168 267.323 429.128C269.333 429.948 267.973 437.838 268.163 442.208C268.253 444.228 268.303 446.328 267.473 448.178C266.643 450.028 264.663 451.508 262.683 451.088C261.223 450.778 260.303 449.248 260.093 447.768C259.883 446.288 260.203 444.788 260.283 443.298C260.363 441.678 260.163 440.038 259.683 438.488C259.293 437.218 258.463 435.828 257.143 435.758C255.003 435.648 254.463 438.678 254.693 440.808L255.733 450.148C255.883 451.468 256.083 452.898 257.043 453.808C259.463 456.128 264.373 453.268 266.513 455.858C267.283 456.788 267.333 458.098 267.343 459.308C267.523 473.678 269.953 499.888 267.883 502.418C266.943 503.568 244.923 504.148 233.453 505.018C231.443 505.168 230.503 502.608 230.263 500.608C229.173 491.678 228.893 482.658 229.423 473.678C229.513 472.128 229.653 470.508 230.483 469.198C232.333 466.268 236.493 466.228 239.953 466.308C246.283 466.448 252.623 465.878 258.823 464.598C260.513 464.248 262.443 463.648 263.083 462.038C263.773 460.308 261.183 459.238 259.323 459.198C249.913 459.018 240.503 459.588 231.183 460.888C229.853 461.078 228.483 461.298 227.383 462.068C224.633 464.008 224.423 467.928 224.473 471.288C224.633 481.458 224.793 491.628 224.953 501.798C224.983 503.598 225.053 505.538 226.153 506.968C227.833 509.168 231.083 509.188 233.843 509.008C244.073 508.338 254.303 507.678 264.533 507.008C265.853 506.918 267.683 507.268 267.683 508.598C267.683 510.038 265.643 510.238 264.203 510.298C260.673 510.448 257.503 512.798 255.643 515.798C253.783 518.798 253.083 522.378 252.843 525.898C252.693 528.038 252.783 530.408 254.243 531.978C256.143 534.038 259.433 533.798 261.963 534.998C264.673 536.288 266.323 539.208 266.843 542.168C267.363 545.128 267.243 548.218 266.533 551.138C265.633 554.828 266.053 568.628 265.523 581.268C264.843 597.438 267.223 620.018 263.473 621.668C258.733 623.758 230.013 625.048 213.573 622.848C207.493 622.038 196.363 623.298 195.203 620.828C193.353 616.888 194.453 590.118 194.633 575.128C194.643 574.288 194.783 573.258 195.563 572.958C195.903 572.828 196.273 572.878 196.633 572.928C199.743 573.378 202.863 573.678 206.003 573.838C206.903 573.888 207.863 573.908 208.653 573.468C209.673 572.908 210.423 571.778 210.533 570.618C211.163 563.878 209.843 563.538 210.333 557.598C210.403 556.698 211.103 549.478 210.383 548.938C209.753 548.468 208.923 548.418 208.143 548.378C204.363 548.198 200.573 548.018 196.793 547.838C196.163 547.808 195.463 547.738 195.073 547.258C194.763 546.868 194.743 546.328 194.743 545.828C194.713 538.508 193.763 531.028 193.983 523.718L193.943 523.708Z" stroke="black" stroke-miterlimit="10"/>
<path d="M267.843 520.478C266.173 523.768 269.383 528.668 266.623 531.108C264.823 532.698 261.763 531.898 260.293 529.998C258.823 528.098 258.603 525.518 258.763 523.118C258.893 521.088 259.293 518.988 260.493 517.348C261.693 515.708 263.873 514.648 265.813 515.258C267.753 515.868 268.763 518.658 267.843 520.468V520.478Z" stroke="black" stroke-miterlimit="10"/>
<path d="M195.403 553.608C196.323 551.118 201.063 552.858 203.713 552.968C204.463 552.998 205.303 553.088 205.773 553.668C206.133 554.118 206.173 554.738 206.203 555.308L206.713 567.208C206.733 567.598 206.733 568.028 206.503 568.338C206.183 568.758 205.573 568.788 205.053 568.778C201.733 568.728 198.413 568.668 195.083 568.618C194.223 563.718 194.423 556.278 195.403 553.608Z" stroke="black" stroke-miterlimit="10"/>
<path d="M506.703 627.838C506.403 627.838 506.093 627.838 505.823 627.958C505.173 628.258 505.023 629.088 504.953 629.798C503.313 647.138 501.673 664.508 501.553 681.928C501.533 684.968 501.753 688.438 504.123 690.348C505.123 691.148 506.373 691.558 507.603 691.898C516.673 694.448 526.333 694.838 535.583 693.028C536.243 692.898 536.923 692.748 537.413 692.288C537.883 691.848 538.093 691.208 538.273 690.598C544.013 671.388 542.053 650.838 540.043 630.888C539.953 629.998 539.833 629.028 539.213 628.378C536.743 625.748 527.873 627.698 524.373 627.828C518.483 628.038 512.583 627.868 506.693 627.828L506.703 627.838Z" stroke="black" stroke-miterlimit="10"/>
<path d="M561.373 627.768C569.543 627.838 577.723 627.908 585.893 627.978C587.433 627.988 589.023 628.018 590.423 628.638C594.403 630.398 595.003 635.698 595.013 640.048C595.053 661.468 594.933 682.878 594.643 704.298C594.613 706.298 593.303 708.328 591.453 709.108C589.603 709.888 587.543 709.918 585.543 709.938C568.083 710.128 550.623 710.318 533.163 710.508C532.373 710.508 531.543 710.508 530.833 710.168C530.333 709.918 529.923 709.508 529.583 709.068C526.923 705.628 528.773 699.758 532.933 698.458C535.763 697.578 539.233 698.488 541.473 696.558C542.663 695.528 543.183 693.938 543.543 692.398C544.783 687.148 544.883 681.698 544.963 676.298C545.203 661.568 545.443 646.848 545.693 632.118C545.713 630.878 545.793 629.508 546.663 628.638C547.363 627.938 548.413 627.738 549.403 627.618C552.933 627.168 557.803 627.738 561.363 627.768H561.373Z" stroke="black" stroke-miterlimit="10"/>
<path d="M333.993 711.758C354.153 710.978 374.303 710.208 394.463 709.428C413.833 708.688 433.253 707.938 452.603 709.138C457.053 709.418 461.513 709.508 465.973 709.608C483.603 709.988 501.243 710.368 518.873 710.738C520.293 710.768 521.763 710.788 523.073 710.238C524.383 709.688 525.503 708.408 525.383 706.988C525.203 704.758 524.913 702.298 523.283 700.768C521.073 698.698 517.593 699.298 514.583 699.558C510.383 699.918 506.113 699.328 502.173 697.838C501.733 697.668 501.283 697.488 500.903 697.228C499.543 696.288 499.123 694.488 498.833 692.858C495.303 672.618 496.553 651.878 498.283 631.398C498.353 630.558 498.393 629.608 497.833 628.978C497.253 628.318 496.263 628.268 495.383 628.268L487.693 628.248C467.973 629.718 448.123 629.728 428.373 628.728C416.323 628.118 401.573 628.048 389.523 627.438C367.113 626.288 347.173 627.018 324.743 627.438C321.173 627.508 319.673 630.508 319.103 634.028C316.543 649.908 319.883 667.108 318.703 683.148C318.373 687.708 317.883 707.248 321.103 710.498C324.323 713.748 329.433 711.928 334.003 711.748L333.993 711.758Z" stroke="black" stroke-miterlimit="10"/>
<path d="M269.573 629.188C270.633 629.168 271.823 629.198 272.543 629.978C273.163 630.648 273.193 631.658 273.203 632.568C273.293 658.108 273.393 683.648 273.483 709.178C273.483 710.218 273.383 711.458 272.473 711.968C272.063 712.198 271.573 712.218 271.113 712.238C247.413 712.998 223.683 712.618 200.023 711.088C198.273 710.978 196.323 710.758 195.183 709.428C194.223 708.308 194.123 706.708 194.063 705.238C193.753 697.258 193.443 689.278 193.123 681.298C192.453 664.288 191.803 647.118 194.873 630.378C194.993 629.748 195.133 629.068 195.603 628.628C196.213 628.058 197.153 628.078 197.993 628.128C209.753 628.878 221.553 630.178 233.303 629.938C245.393 629.688 257.503 629.188 269.593 629.188H269.573Z" stroke="black" stroke-miterlimit="10"/>
<path d="M178.793 428.208C181.513 428.238 184.793 428.618 185.983 431.068C186.323 431.778 186.433 432.578 186.533 433.368C188.543 449.128 189.583 465.008 189.663 480.898C189.663 482.008 189.633 483.218 188.943 484.078C188.143 485.078 186.723 485.298 185.443 485.428C141.303 489.978 96.5932 481.908 52.4432 486.338C51.0732 486.478 49.5133 486.558 48.5233 485.608C47.4833 484.608 47.5732 482.948 47.7432 481.518C49.7232 465.368 53.3332 449.418 58.5032 433.988C58.9932 432.508 59.5533 430.968 60.7333 429.958C62.1533 428.738 64.1633 428.548 66.0333 428.428C83.3133 427.338 100.313 429.708 117.433 429.108C137.883 428.388 158.323 427.968 178.783 428.208H178.793Z" stroke="black" stroke-miterlimit="10"/>
<path d="M89.0532 712.418C100.873 711.828 171.783 716.198 183.343 710.368C190.963 706.528 184.243 595.538 185.883 526.638C186.103 517.308 185.753 507.958 185.063 498.648C184.993 497.678 184.903 496.678 184.423 495.828C183.233 493.758 180.363 493.568 177.973 493.638C164.783 494.028 151.593 494.408 138.413 494.798C111.033 495.598 83.1432 496.548 55.8932 493.708C53.5032 493.458 50.7332 493.318 49.0732 495.058C48.0632 496.128 47.7332 497.648 47.4432 499.088C43.2532 520.088 39.1432 541.098 35.0232 562.108C32.1432 576.788 29.2732 591.478 26.3932 606.158C25.2032 612.228 24.0132 618.288 22.8732 624.368C17.7232 651.698 13.4432 679.188 10.0532 706.788C9.9232 707.868 9.79321 708.998 10.1932 710.008C11.2832 712.788 15.1432 712.788 18.1032 712.358C35.3032 709.858 73.0832 713.228 89.0632 712.428L89.0532 712.418Z" stroke="black" stroke-miterlimit="10"/>
<path d="M663.423 556.868C664.873 555.638 677.333 555.508 689.373 554.548C701.423 553.798 703.473 554.518 705.493 555.458C707.243 556.278 708.753 559.918 709.693 562.728C710.913 565.368 712.313 569.088 713.883 569.328C716.733 569.758 718.913 568.588 719.153 567.908C719.873 565.908 691.393 520.058 689.293 516.088C680.633 499.708 679.163 500.448 668.893 485.018C663.413 476.778 657.933 468.538 652.453 460.298C650.403 457.208 648.313 454.078 645.473 451.698C642.633 449.318 638.893 447.748 635.233 448.338C618.293 451.078 625.563 479.528 625.383 490.278C625.003 514.008 624.613 537.738 624.233 561.468C624.193 564.108 623.903 567.868 626.373 568.798C636.173 572.478 647.313 569.198 657.773 568.708C659.653 568.618 661.823 568.368 662.863 566.788C663.913 565.198 663.273 563.108 663.013 561.228C662.753 559.348 662.573 557.568 663.403 556.858L663.423 556.868Z" stroke="black" stroke-miterlimit="10"/>
<path d="M669.573 561.868C668.143 563.768 669.623 568.368 673.073 569.268C675.653 569.308 682.423 569.398 689.193 569.288C695.953 568.978 698.833 569.878 701.393 568.578C703.693 567.408 707.213 563.178 703.923 560.728C700.073 557.858 670.413 560.768 669.583 561.868H669.573Z" stroke="black" stroke-miterlimit="10"/>
<path d="M712.463 575.848C715.393 575.688 718.453 575.548 721.133 576.748C723.163 577.658 724.793 579.258 726.323 580.868C731.293 586.118 735.693 591.898 739.453 598.068C740.973 600.568 742.423 603.278 742.443 606.208C742.463 610.488 739.303 614.278 735.493 616.238C731.683 618.198 727.323 618.688 723.053 619.078C702.673 620.978 685.593 620.728 665.123 620.118C663.733 620.078 662.103 619.888 661.433 618.668C661.283 618.388 661.203 618.088 661.123 617.778C658.283 607.048 657.193 595.858 657.883 584.788C657.983 583.248 658.123 581.658 658.893 580.318C660.253 577.928 663.223 576.958 665.963 576.808C682.523 575.928 695.833 576.728 712.463 575.828V575.848Z" stroke="black" stroke-miterlimit="10"/>
<path d="M632.893 578.558C637.003 578.938 640.943 578.588 644.963 578.598C646.433 578.598 648.123 578.708 649.033 579.868C649.473 580.428 649.643 581.148 649.803 581.838C652.533 593.968 653.313 606.528 652.113 618.898C652.053 619.518 651.963 620.188 651.503 620.608C651.063 621.008 650.423 621.068 649.833 621.098C642.783 621.498 635.733 621.908 628.673 622.308C627.113 622.398 625.363 622.418 624.243 621.338C623.363 620.488 623.113 619.198 622.923 617.988C621.543 609.138 620.713 600.208 620.433 591.258C620.323 587.728 620.373 583.938 622.373 581.038C624.373 578.138 628.743 578.168 632.883 578.558H632.893Z" stroke="black" stroke-miterlimit="10"/>
<path d="M741.003 625.828C741.853 625.788 742.743 625.748 743.503 626.128C744.333 626.548 744.853 627.378 745.333 628.168C750.283 636.338 755.223 644.508 760.173 652.678C760.943 653.958 761.653 655.788 760.523 656.768C760.053 657.178 759.393 657.278 758.783 657.358C743.923 659.288 728.883 659.828 713.933 658.968C712.943 658.908 711.863 658.808 711.173 658.098C710.623 657.528 710.453 656.708 710.323 655.928C708.893 647.688 708.203 639.318 708.263 630.948C708.263 630.018 708.323 628.988 708.943 628.298C709.493 627.678 710.353 627.468 711.163 627.318C720.713 625.518 731.283 626.318 741.003 625.828Z" stroke="black" stroke-miterlimit="10"/>
<path d="M700.033 626.988C700.213 636.778 700.383 646.568 700.563 656.368C700.573 657.078 700.373 658.038 699.653 658.058C674.903 658.628 650.153 659.068 625.403 659.388C624.313 659.398 622.963 659.248 622.963 659.248C622.563 658.238 622.443 657.928 622.443 657.588C622.443 657.258 622.383 648.748 622.323 640.238C622.263 631.728 622.253 630.778 622.273 629.748C622.833 628.978 623.643 627.878 625.223 627.768C626.593 627.748 638.983 627.598 651.373 627.438C667.603 627.228 683.793 626.188 700.023 627.008L700.033 626.988Z" stroke="black" stroke-miterlimit="10"/>
<path d="M672.723 711.958C647.463 711.028 623.713 713.778 622.273 710.498C618.683 702.298 621.013 669.108 622.763 667.258C625.093 664.788 627.243 664.348 643.953 664.648C661.253 664.958 678.583 665.938 695.873 665.618C697.453 665.588 699.163 665.598 700.413 666.568C702.113 667.888 702.233 670.358 702.203 672.508C702.033 684.528 698.873 695.328 701.413 707.078C702.243 710.918 695.483 712.788 672.733 711.938L672.723 711.958Z" stroke="black" stroke-miterlimit="10"/>
<path d="M751.003 622.348C764.673 622.348 778.703 660.868 785.303 680.618C787.393 686.878 790.403 692.838 794.203 698.238C795.313 699.818 796.523 701.398 797.043 703.258C797.563 705.118 797.243 707.368 795.713 708.558C794.433 709.548 792.673 709.568 791.043 709.548C763.393 709.168 717.113 714.868 712.213 711.968C706.483 708.578 706.383 687.528 707.283 675.868C707.433 673.858 707.653 671.768 708.783 670.098C711.593 665.928 710.383 666.258 711.593 665.928C717.063 664.438 744.843 667.468 761.953 664.338C763.083 664.128 764.263 663.898 765.183 663.208C766.503 662.228 767.063 660.518 767.263 658.888C768.573 647.958 763.043 642.998 756.933 633.838C754.403 630.048 748.353 622.348 751.003 622.348Z" stroke="black" stroke-miterlimit="10"/>
<path d="M428.553 834.678C481.633 833.838 534.713 832.998 587.783 832.148C611.513 831.768 635.243 831.398 658.963 831.928C693.983 832.708 729.023 835.468 763.983 833.298C773.843 832.688 783.703 832.078 793.563 831.458C803.983 830.808 814.453 830.158 824.613 827.798C829.413 826.688 834.633 824.778 836.813 820.358C838.113 817.708 838.073 814.618 837.853 811.668C836.073 787.938 825.003 766.048 814.143 744.878C810.823 738.408 806.993 731.458 800.283 728.678C796.393 727.068 792.043 727.118 787.843 727.308C785.163 727.428 782.483 727.598 779.803 727.758C707.703 732.038 638.293 724.368 566.063 723.678C528.033 723.308 484.403 725.748 446.393 724.708C416.863 723.898 390.483 725.448 360.963 724.408C326.353 723.198 291.713 724.988 257.083 725.488C190.133 726.448 136.533 725.418 69.5832 724.708C60.3732 724.608 37.3132 720.658 28.1932 721.978C23.2632 722.698 17.9932 723.728 14.5332 727.308C11.1432 730.808 10.2332 735.948 9.48323 740.758C7.17323 755.568 4.86318 770.378 2.55318 785.188C0.66318 797.328 -1.17677 810.118 3.16323 821.608C3.66323 822.948 4.25319 824.258 5.00319 825.468C9.90319 833.358 38.3332 834.618 47.6132 834.238C122.453 831.138 178.383 838.438 252.843 835.088C310.923 832.468 370.413 833.368 428.533 834.678H428.553Z" stroke="black" stroke-miterlimit="10"/>
<path d="M134.313 787.488C139.213 786.508 143.843 790.998 144.903 795.878C145.963 800.758 144.433 805.788 142.923 810.558C141.183 810.648 139.443 810.748 137.693 810.838C137.273 803.558 136.843 796.268 136.423 788.988C131.583 789.738 126.053 796.968 121.523 795.108C116.993 793.248 113.563 787.788 115.673 783.378C117.883 778.758 124.093 778.158 129.213 778.208C129.943 781.288 128.183 784.768 125.263 785.988C123.013 782.668 120.653 778.948 121.193 774.968C121.733 770.988 126.943 767.768 129.873 770.518C130.463 765.778 134.953 761.328 139.623 762.308C144.293 763.288 145.843 771.158 141.383 772.868C140.033 771.298 139.303 769.198 139.403 767.128C144.343 765.538 149.143 772.908 145.683 776.788C152.043 774.898 159.433 780.348 159.523 786.978C156.103 789.858 150.263 789.098 147.693 785.428C151.233 783.668 155.943 787.858 154.613 791.578C150.853 792.988 146.463 792.548 143.053 790.438C145.103 789.348 147.943 791.728 147.233 793.938C144.963 797.278 138.523 793.218 140.563 789.728C142.603 791.178 142.103 794.708 140.023 796.108C137.943 797.508 135.063 797.108 132.893 795.848C130.863 794.658 129.193 792.598 129.123 790.258C129.053 787.918 131.093 785.518 133.423 785.758C135.753 785.998 137.103 789.508 135.243 790.928L132.683 784.108C131.963 782.208 131.243 780.178 131.623 778.178C132.003 776.178 133.963 774.338 135.933 774.858C137.903 775.378 138.143 778.928 136.133 779.218C134.353 779.608 132.503 777.678 132.983 775.918C136.023 774.818 139.343 773.988 142.453 774.878C145.563 775.768 148.203 778.928 147.483 782.068C146.763 785.208 141.733 786.558 140.163 783.728C142.163 783.278 142.363 787.108 140.413 787.738C138.463 788.368 136.503 786.938 134.943 785.608C134.123 784.058 132.613 787.818 134.323 787.478L134.313 787.488Z" stroke="black" stroke-miterlimit="10"/>
<path d="M685.253 789.878C690.153 788.898 694.783 793.388 695.843 798.268C696.903 803.148 695.373 808.178 693.863 812.948C692.123 813.038 690.383 813.138 688.633 813.228C688.213 805.948 687.783 798.658 687.363 791.378C682.523 792.128 676.993 799.358 672.463 797.498C667.933 795.638 664.503 790.178 666.613 785.768C668.823 781.148 675.033 780.548 680.153 780.598C680.883 783.678 679.123 787.158 676.203 788.378C673.953 785.058 671.593 781.338 672.133 777.358C672.673 773.378 677.883 770.158 680.813 772.908C681.403 768.168 685.893 763.718 690.563 764.698C695.233 765.678 696.783 773.548 692.323 775.258C690.973 773.688 690.243 771.588 690.343 769.518C695.283 767.928 700.083 775.298 696.623 779.178C702.983 777.288 710.373 782.738 710.463 789.368C707.043 792.248 701.203 791.488 698.633 787.818C702.173 786.058 706.883 790.248 705.553 793.968C701.793 795.378 697.403 794.938 693.993 792.828C696.043 791.738 698.883 794.118 698.173 796.328C695.903 799.668 689.463 795.608 691.503 792.118C693.543 793.568 693.043 797.098 690.963 798.498C688.883 799.898 686.003 799.498 683.833 798.238C681.803 797.048 680.133 794.988 680.063 792.648C679.993 790.308 682.033 787.908 684.363 788.148C686.693 788.388 688.043 791.898 686.183 793.318L683.623 786.498C682.903 784.598 682.183 782.568 682.563 780.568C682.943 778.568 684.903 776.728 686.873 777.248C688.843 777.768 689.083 781.318 687.073 781.608C685.293 781.998 683.443 780.068 683.923 778.308C686.963 777.208 690.283 776.378 693.393 777.268C696.503 778.158 699.143 781.318 698.423 784.458C697.703 787.598 692.673 788.948 691.103 786.118C693.103 785.668 693.303 789.498 691.353 790.128C689.403 790.758 687.443 789.328 685.883 787.998C685.063 786.448 683.553 790.208 685.263 789.868L685.253 789.878Z" stroke="black" stroke-miterlimit="10"/>
<path d="M232.963 786.058C234.803 783.968 237.553 787.658 237.793 790.428C238.493 798.758 238.263 807.158 237.123 815.428C234.723 815.488 232.333 815.548 229.933 815.608C230.483 806.468 231.033 797.318 231.583 788.178C227.203 787.718 227.023 796.558 222.953 794.868C220.003 793.638 216.943 791.858 215.853 788.848C214.763 785.838 216.993 781.688 220.163 782.148C221.463 784.038 221.113 786.888 219.383 788.398C215.553 786.848 213.263 782.238 214.333 778.258C215.403 774.278 219.703 771.428 223.783 772.008C225.673 772.278 227.663 773.478 227.913 775.368C228.173 777.388 226.313 779.098 224.383 779.768C220.563 781.108 215.743 779.438 214.063 775.748C212.383 772.058 214.743 766.968 218.743 766.348C222.743 765.728 226.603 770.568 224.713 774.148C224.083 770.218 226.903 766.378 230.433 764.538C233.963 762.698 238.073 762.418 242.053 762.168C243.583 762.068 245.713 762.528 245.623 764.058C245.423 767.578 244.923 771.618 241.973 773.538C239.023 775.458 233.903 771.838 236.073 769.068C238.623 770.408 240.443 773.038 240.803 775.888L231.653 776.898C231.443 774.848 231.233 772.798 231.023 770.748C234.953 770.548 239.033 770.368 242.673 771.878C246.313 773.388 249.353 777.098 248.753 780.988C246.703 781.968 244.193 781.918 242.183 780.868C244.693 778.768 247.993 777.628 251.263 777.748C253.833 782.848 252.463 789.618 248.123 793.328C243.783 797.038 236.883 797.318 232.243 793.988C234.813 792.538 238.533 793.968 239.463 796.768C234.693 799.738 227.113 796.168 227.043 790.548C226.963 784.928 235.603 781.498 238.953 786.008C237.393 783.298 235.773 780.168 236.703 777.188C237.633 774.208 242.613 772.938 243.743 775.848C240.423 777.518 235.883 774.078 236.583 770.428C242.553 769.278 248.923 770.288 254.243 773.248C250.973 775.258 246.373 774.758 243.613 772.098C246.003 769.508 251.023 771.468 251.673 774.938C252.323 778.408 249.303 781.828 245.833 782.428C244.013 782.748 242.123 782.628 240.353 782.078C242.173 784.658 241.723 788.578 239.373 790.678C237.023 792.778 235.313 788.148 232.953 786.058H232.963Z" stroke="black" stroke-miterlimit="10"/>
<path d="M520.253 786.058C522.093 783.968 524.843 787.658 525.083 790.428C525.783 798.758 525.553 807.158 524.413 815.428C522.013 815.488 519.623 815.548 517.223 815.608C517.773 806.468 518.323 797.318 518.873 788.178C514.493 787.718 514.313 796.558 510.243 794.868C507.293 793.638 504.233 791.858 503.143 788.848C502.053 785.838 504.283 781.688 507.453 782.148C508.753 784.038 508.403 786.888 506.673 788.398C502.843 786.848 500.553 782.238 501.623 778.258C502.693 774.278 506.993 771.428 511.073 772.008C512.963 772.278 514.953 773.478 515.203 775.368C515.463 777.388 513.603 779.098 511.673 779.768C507.853 781.108 503.033 779.438 501.353 775.748C499.673 772.058 502.033 766.968 506.033 766.348C510.033 765.728 513.893 770.568 512.003 774.148C511.373 770.218 514.193 766.378 517.723 764.538C521.253 762.698 525.363 762.418 529.343 762.168C530.873 762.068 533.003 762.528 532.913 764.058C532.713 767.578 532.213 771.618 529.263 773.538C526.313 775.458 521.193 771.838 523.363 769.068C525.913 770.408 527.733 773.038 528.093 775.888L518.943 776.898C518.733 774.848 518.523 772.798 518.313 770.748C522.243 770.548 526.323 770.368 529.963 771.878C533.603 773.388 536.643 777.098 536.043 780.988C533.993 781.968 531.483 781.918 529.473 780.868C531.983 778.768 535.283 777.628 538.553 777.748C541.123 782.848 539.753 789.618 535.413 793.328C531.073 797.038 524.173 797.318 519.533 793.988C522.103 792.538 525.823 793.968 526.753 796.768C521.983 799.738 514.403 796.168 514.333 790.548C514.253 784.928 522.893 781.498 526.243 786.008C524.683 783.298 523.063 780.168 523.993 777.188C524.923 774.208 529.903 772.938 531.033 775.848C527.713 777.518 523.173 774.078 523.873 770.428C529.843 769.278 536.213 770.288 541.533 773.248C538.263 775.258 533.663 774.758 530.903 772.098C533.293 769.508 538.313 771.468 538.963 774.938C539.613 778.408 536.593 781.828 533.123 782.428C531.303 782.748 529.413 782.628 527.643 782.078C529.463 784.658 529.013 788.578 526.663 790.678C524.313 792.778 522.603 788.148 520.243 786.058H520.253Z" stroke="black" stroke-miterlimit="10"/>
<path d="M329.383 818.118C331.803 818.608 334.463 818.168 336.503 816.918C337.163 811.288 340.383 771.228 331.673 771.768C328.113 771.988 328.123 817.868 329.383 818.118Z" stroke="black" stroke-miterlimit="10"/>
<path d="M316.183 770.298C320.023 766.068 323.943 763.868 328.703 761.198C336.473 760.138 338.793 764.648 340.263 767.528C338.123 771.068 334.973 772.598 331.813 774.128C327.993 774.108 324.413 773.798 316.213 773.078C306.473 769.238 306.333 762.028 309.663 763.008C311.303 766.968 309.473 769.598 305.583 763.288C310.103 754.268 318.033 752.488 319.593 752.148C321.293 752.058 322.763 752.628 326.723 754.188C325.833 760.298 321.673 761.398 317.513 762.498C313.013 758.758 313.403 754.968 313.783 751.178C318.133 748.268 322.473 748.268 326.823 748.258C330.853 750.698 333.173 753.908 330.113 754.248C326.673 754.028 324.453 752.148 322.243 750.258C322.433 746.298 325.343 745.398 327.483 744.738C329.893 746.068 330.903 747.848 331.903 749.638C331.843 751.728 331.673 753.708 328.133 753.588C327.073 748.668 329.783 746.668 332.503 744.678C336.773 745.358 339.623 747.208 341.273 748.278C342.693 749.808 342.873 751.588 343.063 753.378C341.613 755.338 339.573 755.448 337.523 755.548C335.813 753.118 337.183 751.778 340.483 753.128C342.773 756.708 341.313 759.638 339.863 762.558C334.103 763.038 332.753 760.068 336.783 758.438C342.193 761.128 342.663 764.998 343.133 768.858C338.483 772.488 334.153 771.638 335.113 770.228C337.563 769.828 339.033 770.838 340.503 771.858C340.643 774.038 339.303 775.188 336.593 777.508C332.173 774.448 330.793 771.358 329.523 768.508C329.033 765.248 330.293 762.398 331.563 759.548C334.893 757.288 338.373 757.618 341.843 757.948C344.673 761.428 343.283 764.238 341.593 767.638C335.943 767.638 332.113 766.058 327.503 764.148C323.553 760.428 323.103 755.978 322.653 751.528C326.763 746.768 331.863 746.968 336.003 747.128C339.353 750.348 340.403 753.858 341.453 757.368C340.673 761.088 339.623 764.598 339.623 764.598C335.033 761.628 334.853 754.758 339.273 751.598C344.823 747.638 352.883 750.958 354.473 756.568C356.063 762.178 350.103 769.788 345.313 773.318C337.013 779.438 321.183 779.348 316.183 770.278V770.298Z" stroke="black" stroke-miterlimit="10"/>
<path d="M602.893 816.158C605.313 816.578 607.973 816.198 610.013 815.138C610.673 810.328 613.893 776.088 605.183 776.548C601.623 776.738 601.633 815.948 602.893 816.168V816.158Z" stroke="black" stroke-miterlimit="10"/>
<path d="M589.693 775.288C593.533 771.668 597.453 769.788 602.213 767.508C609.983 766.598 612.303 770.458 613.773 772.918C611.633 775.938 608.483 777.248 605.323 778.558C601.503 778.538 597.923 778.278 589.723 777.668C579.983 774.388 579.843 768.218 583.173 769.068C584.813 772.448 582.983 774.708 579.093 769.308C583.613 761.598 591.543 760.078 593.103 759.788C594.803 759.708 596.273 760.198 600.233 761.528C599.343 766.748 595.183 767.688 591.023 768.628C586.523 765.428 586.913 762.188 587.293 758.948C591.643 756.458 595.983 756.458 600.333 756.458C604.363 758.538 606.683 761.288 603.623 761.578C600.183 761.388 597.963 759.778 595.753 758.168C595.943 754.788 598.853 754.018 600.993 753.448C603.403 754.588 604.413 756.108 605.413 757.628C605.353 759.408 605.183 761.108 601.643 761.008C600.583 756.808 603.293 755.098 606.013 753.388C610.283 753.968 613.133 755.548 614.783 756.458C616.203 757.758 616.383 759.288 616.573 760.818C615.123 762.498 613.083 762.588 611.033 762.678C609.323 760.598 610.693 759.458 613.993 760.618C616.283 763.678 614.823 766.178 613.373 768.678C607.613 769.088 606.263 766.548 610.293 765.158C615.703 767.458 616.173 770.768 616.643 774.068C611.993 777.168 607.663 776.438 608.623 775.238C611.073 774.898 612.543 775.758 614.013 776.628C614.153 778.488 612.813 779.468 610.103 781.458C605.683 778.848 604.303 776.208 603.033 773.768C602.543 770.988 603.803 768.548 605.073 766.108C608.403 764.178 611.883 764.458 615.353 764.738C618.183 767.718 616.793 770.118 615.103 773.018C609.453 773.018 605.623 771.668 601.013 770.038C597.063 766.858 596.613 763.058 596.163 759.248C600.273 755.178 605.373 755.348 609.513 755.488C612.863 758.238 613.913 761.238 614.963 764.238C614.183 767.418 613.133 770.418 613.133 770.418C608.543 767.878 608.363 762.008 612.783 759.308C618.333 755.928 626.393 758.758 627.983 763.558C629.573 768.358 623.613 774.858 618.823 777.868C610.523 783.098 594.693 783.018 589.693 775.278V775.288Z" stroke="black" stroke-miterlimit="10"/>
<path d="M439.253 778.048C438.133 777.338 437.003 776.638 435.883 775.928C434.653 777.508 434.583 779.378 435.693 780.988C441.533 781.038 447.213 778.728 449.193 775.508C451.173 772.288 449.323 768.388 444.783 766.228C440.533 768.478 438.693 772.178 440.203 775.418C445.333 761.658 442.423 746.918 432.053 734.218C414.213 740.798 406.943 755.648 416.103 766.778C421.413 762.048 420.323 755.188 413.603 751.118C407.803 760.418 410.973 771.458 421.643 779.138C426.493 776.468 426.873 771.488 422.453 768.568C421.533 773.838 420.623 779.198 422.363 784.398C424.103 789.598 428.903 794.708 436.853 797.208C444.583 790.158 444.073 780.328 435.623 773.568C434.163 772.398 432.323 771.258 429.893 770.988C427.463 770.718 424.543 771.738 424.673 773.178C425.053 777.318 426.903 781.408 430.063 785.108C433.863 785.158 437.513 783.418 438.193 781.228C438.873 779.038 436.503 776.648 432.913 775.918C430.933 777.358 429.993 779.268 430.353 781.108C439.603 778.098 442.683 770.058 436.523 765.018C433.533 766.268 433.263 769.208 436.023 770.638C441.273 770.018 443.813 766.098 442.153 763.118C440.493 760.128 435.953 758.028 431.303 756.468C425.533 759.008 422.843 763.728 424.863 767.788C437.743 761.458 442.643 750.128 436.473 740.958C433.633 744.448 434.373 748.848 438.323 751.938C439.313 748.948 440.273 745.738 438.173 742.948C436.073 740.168 429.543 738.358 425.493 740.258C423.933 740.988 423.053 742.098 422.413 743.208C419.683 747.908 420.553 753.288 424.743 757.608C425.203 753.408 423.103 749.128 418.913 745.718C415.483 755.228 418.783 765.508 427.873 773.628C431.193 769.648 431.143 764.768 427.733 760.808C426.423 759.278 424.163 757.748 421.253 757.798C416.943 757.868 415.153 761.078 415.113 763.608C414.973 772.718 425.253 779.078 426.133 787.708C427.193 798.058 428.293 808.398 429.373 818.748C432.263 819.038 435.283 818.848 438.003 818.208C439.963 806.668 439.713 794.998 437.283 783.488C436.973 782.028 435.173 780.068 425.453 781.238L425.583 782.468" stroke="black" stroke-miterlimit="10"/>
</svg>
